<svg width="25" height="24" viewBox="0 0 25 24" fill="none" xmlns="http://www.w3.org/2000/svg">
<path fill-rule="evenodd" clip-rule="evenodd" d="M12.5 24C19.1274 24 24.5 18.6274 24.5 12C24.5 5.37258 19.1274 0 12.5 0C5.87258 0 0.5 5.37258 0.5 12C0.5 18.6274 5.87258 24 12.5 24ZM18.2104 9.08753C17.0855 9.77079 16.5284 10.6974 16.5356 11.927C16.5356 11.9287 16.5355 11.9318 16.5354 11.9364C16.5309 12.0979 16.4781 14.0031 18.6016 15.0043C18.1942 16.2375 16.7952 18.9759 15.1673 18.9994C14.7114 18.9994 14.3468 18.8589 13.971 18.714C13.5711 18.5599 13.1584 18.4008 12.6091 18.4008C12.0153 18.4008 11.5681 18.5701 11.1492 18.7287C10.7935 18.8633 10.4581 18.9903 10.0707 18.9994C8.45723 19.048 6.91042 16.0356 6.48135 14.806C6.16045 13.8722 6 12.9654 6 12.0874C6 9.11637 7.98489 7.6561 9.8526 7.62725C10.3711 7.62725 10.97 7.84382 11.4817 8.02881C11.8631 8.16672 12.196 8.28708 12.4108 8.28708C12.5845 8.28708 12.8678 8.18242 13.2154 8.05404C13.8204 7.83059 14.6201 7.53526 15.3746 7.5948C16.6294 7.69035 17.5812 8.18612 18.2104 9.08753ZM15.4455 4.00811C15.4732 4.37 15.548 5.35124 14.6409 6.42838C13.9846 7.19458 13.1878 7.64348 12.3152 7.57677C12.2413 6.65193 12.5857 5.83165 13.1716 5.16822C13.7034 4.54986 14.6373 4.04687 15.4449 4L15.4455 4.00811Z" fill="black"/>
</svg>
