<svg width="50" height="50" viewBox="0 0 50 50" fill="none" xmlns="http://www.w3.org/2000/svg">
<path d="M15 19C15 17.9391 15.4214 16.9217 16.1716 16.1716C16.9217 15.4214 17.9391 15 19 15H31C32.0609 15 33.0783 15.4214 33.8284 16.1716C34.5786 16.9217 35 17.9391 35 19V31C35 32.0609 34.5786 33.0783 33.8284 33.8284C33.0783 34.5786 32.0609 35 31 35H19C17.9391 35 16.9217 34.5786 16.1716 33.8284C15.4214 33.0783 15 32.0609 15 31V19Z" stroke="black" stroke-width="2" stroke-linecap="round" stroke-linejoin="round"/>
<path d="M21.5 24C22.8807 24 24 22.8807 24 21.5C24 20.1193 22.8807 19 21.5 19C20.1193 19 19 20.1193 19 21.5C19 22.8807 20.1193 24 21.5 24Z" stroke="black" stroke-width="2" stroke-linecap="round" stroke-linejoin="round"/>
<path d="M27.526 25.6211L19 35.0001H31.133C32.1586 35.0001 33.1422 34.5926 33.8674 33.8674C34.5926 33.1422 35 32.1586 35 31.1331V31.0001C35 30.5341 34.825 30.3551 34.51 30.0101L30.48 25.6151C30.2922 25.4102 30.0637 25.2467 29.8092 25.135C29.5546 25.0234 29.2796 24.966 29.0017 24.9666C28.7237 24.9671 28.449 25.0256 28.1949 25.1383C27.9408 25.251 27.713 25.4154 27.526 25.6211V25.6211Z" stroke="black" stroke-width="2" stroke-linecap="round" stroke-linejoin="round"/>
</svg>
