<svg width="50" height="50" viewBox="0 0 50 50" fill="none" xmlns="http://www.w3.org/2000/svg">
<path d="M24.9574 18.9091V32H23.3722V20.571H23.2955L20.0994 22.6932V21.0824L23.3722 18.9091H24.9574ZM29.0739 32.1023C28.7585 32.1023 28.4879 31.9893 28.2621 31.7635C28.0362 31.5376 27.9233 31.267 27.9233 30.9517C27.9233 30.6364 28.0362 30.3658 28.2621 30.1399C28.4879 29.9141 28.7585 29.8011 29.0739 29.8011C29.3892 29.8011 29.6598 29.9141 29.8857 30.1399C30.1115 30.3658 30.2244 30.6364 30.2244 30.9517C30.2244 31.1605 30.1712 31.3523 30.0646 31.527C29.9624 31.7017 29.8239 31.8423 29.6491 31.9489C29.4787 32.0511 29.2869 32.1023 29.0739 32.1023Z" fill="black"/>
</svg>
