<svg width="161" height="106" viewBox="0 0 161 106" fill="none" xmlns="http://www.w3.org/2000/svg">
<ellipse cx="64.6941" cy="16.1538" rx="10.467" ry="4.18681" transform="rotate(-34 64.6941 16.1538)" fill="black"/>
<path d="M65.0642 72.0575C68.3512 70.9845 68.5293 66.9654 72.8614 66.1174C76.3265 65.4374 78.4085 67.8254 78.9255 70.3605C79.3585 72.4825 78.0595 77.9997 71.1283 77.9997C62.4651 77.9997 59.578 72.4825 59 70.3605C59.866 71.2095 62.4651 72.9065 65.0642 72.0575Z" fill="black" stroke="black" stroke-width="1.50002" stroke-linejoin="round"/>
<path d="M92.9369 72.0575C89.6488 70.9845 89.4718 66.9654 85.1397 66.1174C81.6746 65.4374 79.5925 67.8254 79.0755 70.3605C78.6425 72.4825 79.9415 77.9997 86.8727 77.9997C95.5359 77.9997 98.423 72.4825 99.001 70.3605C98.135 71.2095 95.5359 72.9065 92.9369 72.0575Z" fill="black" stroke="black" stroke-width="1.50002" stroke-linejoin="round"/>
<circle cx="70" cy="56" r="5" fill="black"/>
<circle cx="88" cy="56" r="5" fill="black"/>
<path d="M19.7626 52.237L16.7918 52.6541C16.9874 54.0472 18.1247 55.1173 19.5271 55.2277C20.9295 55.3382 22.2203 54.4593 22.6316 53.114L19.7626 52.237ZM34.8104 43.019L34.6617 46.0153L34.8104 43.019ZM47.2001 53.7169L44.2686 54.3547L44.2686 54.3547L47.2001 53.7169ZM13.5 63.5L12.6104 66.3651C12.6986 66.3924 12.788 66.4157 12.8783 66.4349L13.5 63.5ZM4.5 49.5L7.48815 49.2336L4.5 49.5ZM28 65.5L27.7983 68.4932L27.8135 68.4942L27.8288 68.4951L28 65.5ZM44.5987 55.7633C45.0203 57.3657 46.661 58.3228 48.2633 57.9013C49.8656 57.4797 50.8228 55.839 50.4012 54.2367L44.5987 55.7633ZM79 3L79.0333 0.000184774L79 -0.000184774L78.9667 0.000184774L79 3ZM47.1481 81L49.4058 82.9755C50.2557 82.0042 50.3891 80.5983 49.7371 79.4845C49.0851 78.3707 47.7938 77.7987 46.5309 78.0642L47.1481 81ZM51.648 99L50.4371 96.2552L51.648 99ZM118.155 69.2344L117.547 66.2966C116.515 66.51 115.671 67.2487 115.323 68.2427C114.975 69.2367 115.174 70.3405 115.847 71.1509L118.155 69.2344ZM113.331 81.2669L114.014 78.3458C112.727 78.0448 111.395 78.6213 110.734 79.7653C110.072 80.9092 110.237 82.3513 111.14 83.3163L113.331 81.2669ZM15.5548 36L12.791 37.1668H12.791L15.5548 36ZM18.2426 44.5L15.3269 45.2061L18.2426 44.5ZM69.4762 40.3883C68.0338 39.573 66.2036 40.0814 65.3883 41.5238C64.573 42.9662 65.0814 44.7964 66.5238 45.6117L69.4762 40.3883ZM92.0262 45.5828C93.4526 44.7399 93.9257 42.9002 93.0828 41.4738C92.2399 40.0474 90.4002 39.5743 88.9738 40.4172L92.0262 45.5828ZM148.238 63.9726L148.87 66.9053L149.007 66.8757L149.141 66.8333L148.238 63.9726ZM157.207 49.7808L160.195 50.0428L157.207 49.7808ZM133.787 66L133.582 63.007L133.379 63.021L133.179 63.0622L133.787 66ZM146.19 36.0959L148.961 37.246L146.19 36.0959ZM144 44.5L146.918 45.1948L144 44.5ZM22.6316 53.114C23.4086 50.5719 24.4633 48.848 26.0435 47.7339C27.6372 46.6103 30.211 45.7944 34.6617 46.0153L34.9591 40.0227C29.7202 39.7626 25.6528 40.6682 22.5863 42.8301C19.5063 45.0015 17.8819 48.1271 16.8937 51.36L22.6316 53.114ZM34.6617 46.0153C37.9707 46.1796 39.9966 46.9598 41.2662 47.89C42.504 48.7968 43.287 50.0386 43.7629 51.6617L49.5205 49.9736C48.7562 47.3665 47.3278 44.8929 44.8121 43.0499C42.3283 41.2302 39.0586 40.2262 34.9591 40.0227L34.6617 46.0153ZM43.7629 51.6617C43.9744 52.3831 44.1234 53.1774 44.2177 54.0421L50.1824 53.3917C50.0579 52.2505 49.8506 51.0994 49.5205 49.9736L43.7629 51.6617ZM14.3896 60.6349C9.73003 59.1881 7.96074 54.5346 7.48815 49.2336L1.51185 49.7664C2.01794 55.4432 4.14915 63.7379 12.6104 66.3651L14.3896 60.6349ZM7.48815 49.2336C7.22003 46.2261 6.51685 41.5088 6.7493 37.3595C6.86572 35.2812 7.20813 33.7683 7.6997 32.8641C8.07772 32.1687 8.40334 32 9 32V26C5.84665 26 3.67361 27.7077 2.42829 29.9984C1.29653 32.0803 0.890934 34.6632 0.758691 37.0239C0.493806 41.7523 1.29063 47.285 1.51185 49.7664L7.48815 49.2336ZM28.2017 62.5068C24.6178 62.2652 21.0921 61.78 18.4482 61.3512C17.1303 61.1374 16.0405 60.9392 15.2834 60.7951C14.905 60.7231 14.6102 60.6647 14.4121 60.6247C14.3131 60.6047 14.2383 60.5894 14.1893 60.5792C14.1648 60.5742 14.1468 60.5704 14.1355 60.568C14.1298 60.5668 14.1258 60.566 14.1235 60.5655C14.1223 60.5653 14.1216 60.5651 14.1213 60.565C14.1212 60.565 14.1211 60.565 14.1212 60.565C14.1212 60.565 14.1213 60.565 14.1214 60.5651C14.1215 60.5651 14.1217 60.5651 13.5 63.5C12.8783 66.4349 12.8785 66.4349 12.8788 66.435C12.8789 66.435 12.8792 66.4351 12.8795 66.4351C12.88 66.4352 12.8806 66.4354 12.8813 66.4355C12.8827 66.4358 12.8845 66.4362 12.8868 66.4367C12.8914 66.4376 12.8976 66.4389 12.9056 66.4406C12.9215 66.4439 12.9442 66.4487 12.9734 66.4547C13.0317 66.4668 13.1163 66.4842 13.2254 66.5062C13.4436 66.5502 13.76 66.6129 14.1614 66.6893C14.9638 66.842 16.108 67.0501 17.4877 67.2738C20.2391 67.72 23.9634 68.2348 27.7983 68.4932L28.2017 62.5068ZM47.5 55C50.4012 54.2367 50.4013 54.2368 50.4013 54.2369C50.4013 54.2369 50.4013 54.237 50.4014 54.2371C50.4014 54.2372 50.4014 54.2373 50.4015 54.2375C50.4015 54.2377 50.4016 54.2379 50.4016 54.2381C50.4017 54.2385 50.4018 54.2387 50.4018 54.2388C50.4019 54.2391 50.4018 54.239 50.4017 54.2384C50.4014 54.2372 50.4006 54.2343 50.3994 54.2296C50.397 54.2204 50.3929 54.2042 50.3871 54.1813C50.3755 54.1354 50.3574 54.0627 50.3337 53.9644C50.2862 53.7678 50.2163 53.4692 50.1315 53.0792L44.2686 54.3547C44.3637 54.7915 44.4438 55.1344 44.5013 55.3727C44.53 55.4918 44.5532 55.5848 44.5697 55.6503C44.578 55.6831 44.5846 55.709 44.5895 55.7279C44.5919 55.7374 44.5939 55.745 44.5955 55.751C44.5962 55.7539 44.5969 55.7564 44.5974 55.7585C44.5977 55.7595 44.598 55.7604 44.5982 55.7612C44.5983 55.7616 44.5984 55.762 44.5985 55.7624C44.5985 55.7625 44.5985 55.7627 44.5986 55.7629C44.5986 55.7629 44.5986 55.7631 44.5987 55.7631C44.5987 55.7632 44.5987 55.7633 47.5 55ZM50.1315 53.0792C49.9856 52.4085 49.7957 51.469 49.5992 50.3144L43.6842 51.3209C43.8975 52.5745 44.1053 53.604 44.2686 54.3547L50.1315 53.0792ZM49.5992 50.3144C48.5759 44.3005 47.4882 33.0847 50.9249 23.4677C52.6186 18.7282 55.3773 14.4707 59.7192 11.3562C64.0591 8.2432 70.2239 6.09759 79.0333 5.99982L78.9667 0.000184774C69.1929 0.108662 61.7602 2.50825 56.222 6.4808C50.6858 10.4519 47.2861 15.8204 45.2748 21.4486C41.3015 32.567 42.6178 45.0538 43.6842 51.3209L49.5992 50.3144ZM26.5582 80.0883C27.1913 83.2536 30.1675 84.3621 32.0336 84.7734C34.1425 85.2383 36.6459 85.2498 38.8737 85.1199C41.1511 84.9871 43.369 84.6906 45.0011 84.4317C45.8216 84.3016 46.5042 84.1794 46.985 84.089C47.2256 84.0438 47.4161 84.0064 47.5487 83.9799C47.615 83.9667 47.6669 83.9561 47.7033 83.9487C47.7215 83.9449 47.7358 83.942 47.7462 83.9398C47.7514 83.9387 47.7556 83.9379 47.7588 83.9372C47.7604 83.9369 47.7617 83.9366 47.7628 83.9363C47.7633 83.9362 47.764 83.9361 47.7642 83.936C47.7648 83.9359 47.7653 83.9358 47.1481 81C46.5309 78.0642 46.5312 78.0641 46.5315 78.064C46.5315 78.064 46.5318 78.064 46.5318 78.064C46.5319 78.064 46.5317 78.064 46.5313 78.0641C46.5304 78.0643 46.5286 78.0647 46.5258 78.0652C46.5201 78.0664 46.5106 78.0684 46.4973 78.0711C46.4706 78.0766 46.4289 78.0851 46.373 78.0962C46.2612 78.1186 46.0931 78.1515 45.8765 78.1923C45.4429 78.2738 44.8171 78.3859 44.0613 78.5058C42.5406 78.7469 40.534 79.0129 38.5244 79.1301C36.4651 79.2502 34.619 79.1992 33.3251 78.9141C31.7885 78.5754 32.3087 78.2464 32.4417 78.9117L26.5582 80.0883ZM42.5 68.5C42.5 67.6233 43.0495 67.3367 42.7225 67.603C42.4886 67.7934 42.0196 68.073 41.2936 68.3759C39.8536 68.9768 38.0603 69.4013 36.8679 69.5131L37.428 75.4869C39.2356 75.3174 41.6183 74.7419 43.6043 73.9131C44.5914 73.5012 45.6479 72.9585 46.5112 72.2554C47.2815 71.6282 48.5 70.3767 48.5 68.5H42.5ZM36.8679 69.5131C35.0935 69.6795 32.3977 70.2668 30.1789 71.7217C29.0385 72.4695 27.9046 73.5263 27.1697 74.9913C26.4126 76.5006 26.1869 78.2318 26.5582 80.0883L32.4417 78.9117C32.313 78.2682 32.4184 77.9096 32.5328 77.6816C32.6693 77.4093 32.9474 77.0813 33.4691 76.7392C34.5742 76.0145 36.2024 75.6018 37.428 75.4869L36.8679 69.5131ZM47.1481 81C44.8903 79.0245 44.8906 79.0242 44.8908 79.0239C44.8908 79.0239 44.891 79.0237 44.8911 79.0236C44.8913 79.0234 44.8913 79.0234 44.8913 79.0234C44.8911 79.0236 44.8906 79.0242 44.8897 79.0252C44.8878 79.0274 44.8843 79.0314 44.8791 79.0372C44.8689 79.0488 44.8522 79.0677 44.8293 79.0933C44.7837 79.1445 44.7136 79.2226 44.6214 79.3238C44.437 79.5262 44.1654 79.82 43.8258 80.1743C43.1433 80.8865 42.2025 81.8266 41.155 82.7578C40.0952 83.6998 38.992 84.5735 37.982 85.195C36.8758 85.8758 36.2839 86 36.1481 86V92C38.0122 92 39.7953 91.1242 41.1266 90.305C42.5542 89.4265 43.9509 88.3002 45.1412 87.2422C46.3436 86.1734 47.4028 85.1135 48.1578 84.3257C48.537 83.93 48.8435 83.5988 49.0575 83.3637C49.1646 83.2461 49.2488 83.1524 49.3076 83.0864C49.337 83.0534 49.3601 83.0274 49.3766 83.0087C49.3848 82.9994 49.3914 82.9919 49.3963 82.9864C49.3987 82.9836 49.4007 82.9813 49.4023 82.9795C49.4031 82.9786 49.4038 82.9778 49.4044 82.9771C49.4047 82.9768 49.405 82.9764 49.4052 82.9762C49.4055 82.9759 49.4058 82.9755 47.1481 81ZM36.1481 86C35.7091 86 35.2507 85.9851 34.7423 85.9663C34.2505 85.9481 33.6987 85.9257 33.1524 85.9178C32.0719 85.9021 30.7931 85.9358 29.5232 86.2347C28.2087 86.5441 26.8476 87.1501 25.6774 88.3009C24.5164 89.4425 23.7299 90.9368 23.2506 92.7221L29.0454 94.2779C29.3161 93.2697 29.6546 92.8048 29.8843 92.5789C30.1047 92.3622 30.3998 92.1924 30.8979 92.0751C31.4404 91.9474 32.1305 91.9036 33.0655 91.9172C33.5271 91.9238 33.9948 91.9427 34.5206 91.9622C35.0298 91.981 35.587 92 36.1481 92V86ZM23.2506 92.7221C21.9048 97.7345 25.8553 102.129 30.935 103.977C36.2858 105.923 43.8557 105.717 52.859 101.745L50.4371 96.2552C42.4404 99.7832 36.5103 99.6202 32.986 98.3383C29.1908 96.9578 28.8912 94.8523 29.0454 94.2779L23.2506 92.7221ZM52.859 101.745C61.6594 97.8622 66.7705 94.0821 70.5427 91.3747C74.3536 88.6396 76.2102 87.5 79 87.5V81.5C74.0417 81.5 70.7224 83.8604 67.0442 86.5003C63.3274 89.1679 58.6366 92.6378 50.4371 96.2552L52.859 101.745ZM111.478 52.0457C112.138 51.9292 112.872 52.0339 113.522 52.4256C114.106 52.7773 114.422 53.2385 114.575 53.5132C114.851 54.0085 114.897 54.4438 114.903 54.4931C114.928 54.6906 114.912 54.7842 114.921 54.6189C114.935 54.3585 114.982 53.9086 115.064 53.1873C115.222 51.8108 115.472 49.7446 115.662 47.264C116.041 42.3152 116.194 35.5583 114.889 28.7062C113.585 21.8568 110.782 14.6942 105.072 9.20342C99.3084 3.66135 90.9061 0.131958 79.0333 0.000184774L78.9667 5.99982C89.619 6.11804 96.4537 9.24024 100.913 13.5283C105.426 17.8677 107.831 23.7137 108.995 29.8283C110.159 35.9403 110.039 42.103 109.679 46.8061C109.5 49.1515 109.264 51.0944 109.103 52.5071C109.026 53.1805 108.956 53.8202 108.93 54.2943C108.919 54.4962 108.903 54.8681 108.951 55.2488C108.969 55.3897 109.033 55.8929 109.333 56.4315C109.498 56.7278 109.827 57.2045 110.427 57.5654C111.092 57.9664 111.843 58.0742 112.522 57.9543L111.478 52.0457ZM132.46 76.8069C132.211 77.5515 131.527 78.2841 129.82 78.8348C128.101 79.3893 125.826 79.5805 123.386 79.5212C120.987 79.4629 118.635 79.1696 116.864 78.8847C115.984 78.7431 115.259 78.6056 114.76 78.5046C114.51 78.4542 114.317 78.413 114.19 78.3851C114.126 78.3712 114.079 78.3606 114.049 78.3538C114.035 78.3505 114.024 78.3481 114.018 78.3467C114.015 78.346 114.013 78.3456 114.013 78.3454C114.012 78.3454 114.012 78.3453 114.012 78.3454C114.013 78.3454 114.013 78.3455 114.013 78.3455C114.014 78.3456 114.014 78.3458 113.331 81.2669C112.648 84.1881 112.648 84.1883 112.649 84.1885C112.65 84.1885 112.65 84.1887 112.651 84.1889C112.652 84.1892 112.654 84.1896 112.656 84.1901C112.66 84.191 112.665 84.1922 112.672 84.1936C112.684 84.1966 112.701 84.2005 112.723 84.2054C112.767 84.2153 112.828 84.229 112.907 84.2462C113.063 84.2805 113.288 84.3284 113.571 84.3857C114.137 84.5001 114.941 84.6525 115.911 84.8086C117.841 85.119 120.48 85.4524 123.24 85.5194C125.959 85.5855 129.01 85.4006 131.662 84.5451C134.327 83.6857 137.06 81.9743 138.151 78.708L132.46 76.8069ZM118.155 69.2344C115.847 71.1509 115.847 71.1515 115.848 71.1521C115.848 71.1524 115.848 71.153 115.849 71.1535C115.85 71.1544 115.85 71.1554 115.851 71.1564C115.853 71.1585 115.855 71.1607 115.857 71.1632C115.861 71.1681 115.866 71.1738 115.871 71.1802C115.882 71.1932 115.896 71.2092 115.912 71.2282C115.945 71.2661 115.988 71.3157 116.042 71.3755C116.149 71.4948 116.297 71.6557 116.483 71.8452C116.853 72.2213 117.384 72.7246 118.043 73.2425C119.292 74.2233 121.324 75.5164 123.788 75.7324L124.312 69.7554C123.56 69.6894 122.645 69.2277 121.75 68.5243C121.337 68.2001 120.998 67.8789 120.764 67.6411C120.649 67.5235 120.563 67.4301 120.51 67.3718C120.484 67.3428 120.467 67.3228 120.459 67.3133C120.455 67.3085 120.453 67.3064 120.454 67.3071C120.454 67.3075 120.455 67.3085 120.456 67.3103C120.457 67.3112 120.458 67.3123 120.459 67.3136C120.46 67.3142 120.46 67.3149 120.461 67.3156C120.461 67.316 120.462 67.3166 120.462 67.3168C120.462 67.3174 120.463 67.318 118.155 69.2344ZM123.788 75.7324C124.959 75.8351 126.643 75.6248 127.845 75.5029C129.277 75.3577 130.584 75.2552 131.654 75.3391C132.848 75.4328 132.951 75.7037 132.813 75.5362C132.525 75.1859 132.995 75.2062 132.46 76.8069L138.151 78.708C138.956 76.2979 139.091 73.7213 137.446 71.7229C135.951 69.9074 133.676 69.4792 132.123 69.3575C130.446 69.226 128.638 69.3918 127.24 69.5335C125.612 69.6985 124.75 69.7937 124.312 69.7554L123.788 75.7324ZM113.331 81.2669C111.14 83.3163 111.14 83.3166 111.141 83.317C111.141 83.3172 111.141 83.3176 111.141 83.3179C111.142 83.3186 111.143 83.3193 111.144 83.3202C111.145 83.322 111.147 83.3243 111.15 83.3271C111.155 83.3326 111.162 83.34 111.171 83.3493C111.189 83.3679 111.213 83.394 111.245 83.4269C111.308 83.4929 111.398 83.5867 111.512 83.7044C111.741 83.9395 112.069 84.2711 112.475 84.6671C113.283 85.4559 114.416 86.5161 115.701 87.5845C116.974 88.6433 118.461 89.7641 119.974 90.6352C121.401 91.4564 123.24 92.2886 125.122 92.2886V86.2886C124.86 86.2886 124.154 86.1181 122.967 85.4352C121.868 84.8023 120.675 83.9177 119.537 82.971C118.41 82.034 117.399 81.0888 116.666 80.3735C116.301 80.0175 116.009 79.7224 115.811 79.5189C115.712 79.4172 115.637 79.3387 115.588 79.2871C115.563 79.2613 115.545 79.2423 115.534 79.2306C115.529 79.2247 115.525 79.2206 115.523 79.2184C115.522 79.2173 115.521 79.2167 115.521 79.2166C115.521 79.2165 115.521 79.2165 115.521 79.2167C115.521 79.2168 115.521 79.217 115.521 79.217C115.522 79.2173 115.522 79.2176 113.331 81.2669ZM125.122 92.2886C126.091 92.2886 127.666 92.2158 128.42 92.2056C129.433 92.1919 130.212 92.2353 130.841 92.3738C131.434 92.5043 131.798 92.699 132.06 92.9404C132.321 93.1806 132.675 93.6446 132.958 94.6285L138.725 92.9732C138.203 91.156 137.352 89.6555 136.122 88.5245C134.894 87.3946 133.482 86.8114 132.132 86.5141C130.818 86.2249 129.487 86.1906 128.339 86.2061C126.933 86.2252 126.297 86.2886 125.122 86.2886V92.2886ZM132.958 94.6285C133.041 94.9189 133.051 95.4608 132.443 96.2413C131.82 97.0427 130.607 97.9713 128.644 98.639C124.748 99.9648 118.28 100.103 109.652 96.5426L107.363 102.089C116.957 106.048 124.96 106.231 130.577 104.319C133.371 103.368 135.675 101.858 137.179 99.9255C138.699 97.9717 139.446 95.4838 138.725 92.9732L132.958 94.6285ZM109.652 96.5426C100.841 92.9063 95.7515 89.3498 91.7226 86.6077C87.73 83.8902 84.1935 81.5 79 81.5V87.5C82.1118 87.5 84.2177 88.7575 88.3467 91.5678C92.4395 94.3535 97.9513 98.2048 107.363 102.089L109.652 96.5426ZM28 65.5C27.8288 68.4951 27.8287 68.4951 27.8287 68.4951C27.8288 68.4951 27.8288 68.4951 27.829 68.4951C27.8293 68.4951 27.8299 68.4952 27.8307 68.4952C27.8324 68.4953 27.8351 68.4955 27.8388 68.4957C27.8463 68.4961 27.8579 68.4968 27.8735 68.4977C27.9048 68.4996 27.9519 68.5024 28.014 68.5062C28.1382 68.5137 28.3218 68.5252 28.5564 68.5405C29.0259 68.5712 29.6985 68.6173 30.5065 68.6788C32.1258 68.8022 34.2728 68.9864 36.4093 69.2306C38.57 69.4775 40.6237 69.7753 42.0971 70.1121C42.8578 70.2859 43.304 70.4353 43.5007 70.5253C43.6095 70.575 43.4799 70.5343 43.2791 70.3508C43.0874 70.1755 42.5 69.5539 42.5 68.5H48.5C48.5 67.1961 47.7758 66.3323 47.3278 65.9226C46.8707 65.5047 46.3651 65.2375 45.9953 65.0685C45.235 64.7209 44.314 64.464 43.4341 64.2629C41.6263 63.8497 39.3049 63.5225 37.0906 63.2694C34.8522 63.0136 32.6241 62.8228 30.9623 62.6962C30.1296 62.6327 29.4351 62.5851 28.9474 62.5533C28.7036 62.5373 28.5112 62.5253 28.379 62.5173C28.3129 62.5132 28.2619 62.5102 28.2268 62.5081C28.2093 62.5071 28.1959 62.5063 28.1865 62.5058C28.1819 62.5055 28.1782 62.5053 28.1757 62.5051C28.1744 62.5051 28.1734 62.505 28.1726 62.505C28.1722 62.5049 28.1719 62.5049 28.1717 62.5049C28.1714 62.5049 28.1711 62.5049 28 65.5ZM9 32C9.13838 32 9.60782 32.0636 10.4126 32.9936C11.2079 33.9127 12.0183 35.3366 12.791 37.1668L18.3186 34.8332C17.4369 32.7448 16.3354 30.6687 14.9497 29.0674C13.5735 27.4771 11.5928 26 9 26V32ZM12.791 37.1668C13.8342 39.6377 14.6804 42.5364 15.3269 45.2061L21.1583 43.7939C20.4748 40.9714 19.5392 37.7244 18.3186 34.8332L12.791 37.1668ZM15.3269 45.2061C15.8253 47.2642 16.1933 49.1372 16.4366 50.4957C16.5581 51.1737 16.6479 51.7206 16.7069 52.0947C16.7364 52.2817 16.7581 52.4253 16.7722 52.5203C16.7793 52.5678 16.7844 52.6032 16.7877 52.6257C16.7893 52.637 16.7905 52.645 16.7911 52.6498C16.7915 52.6522 16.7917 52.6537 16.7918 52.6544C16.7919 52.6548 16.7919 52.655 16.7919 52.6549C16.7919 52.6549 16.7919 52.6548 16.7918 52.6547C16.7918 52.6546 16.7918 52.6545 16.7918 52.6544C16.7918 52.6543 16.7918 52.6541 19.7626 52.237C22.7335 51.8199 22.7334 51.8197 22.7334 51.8195C22.7334 51.8194 22.7334 51.8192 22.7334 51.819C22.7333 51.8187 22.7332 51.8183 22.7332 51.8178C22.7331 51.8169 22.7329 51.8158 22.7327 51.8145C22.7323 51.8118 22.7318 51.8083 22.7312 51.804C22.73 51.7954 22.7283 51.7834 22.7261 51.7682C22.7217 51.7377 22.7153 51.6942 22.7071 51.6384C22.6905 51.5267 22.666 51.3656 22.6336 51.1602C22.5689 50.7496 22.4722 50.1614 22.3427 49.438C22.084 47.9935 21.6921 45.998 21.1583 43.7939L15.3269 45.2061ZM66.5238 45.6117C76.9724 51.5174 87.7961 48.0824 92.0262 45.5828L88.9738 40.4172C85.8706 42.251 77.4276 44.8826 69.4762 40.3883L66.5238 45.6117ZM140.383 49.3011C141.516 49.0632 142.252 49.659 142.3 49.6977C142.359 49.7448 142.31 49.7147 142.029 49.376C141.571 48.8238 140.736 47.7443 139.568 46.6894C137.078 44.4414 133.223 42.3909 126.948 42.5005L127.052 48.4995C131.777 48.4171 134.164 49.8943 135.546 51.1423C136.314 51.8354 136.821 52.4961 137.412 53.2073C137.655 53.5002 138.057 53.9826 138.529 54.3644C138.991 54.7377 140.106 55.4904 141.617 55.1729L140.383 49.3011ZM149.141 66.8333C157.585 64.1666 159.694 55.7683 160.195 50.0428L154.218 49.5189C153.745 54.9215 151.967 59.6488 147.334 61.1119L149.141 66.8333ZM160.195 50.0428C160.417 47.5193 161.209 41.9232 160.946 37.1389C160.814 34.7516 160.411 32.1475 159.291 30.0505C158.71 28.9641 157.89 27.9252 156.735 27.162C155.558 26.3838 154.194 26 152.722 26V32C153.119 32 153.312 32.0917 153.427 32.1674C153.564 32.2581 153.771 32.4515 153.999 32.8786C154.496 33.8086 154.839 35.3565 154.955 37.4689C155.187 41.6839 154.485 46.4782 154.218 49.5189L160.195 50.0428ZM133.992 68.993C137.817 68.7308 141.53 68.2087 144.273 67.7562C145.649 67.5293 146.79 67.3183 147.59 67.1634C147.99 67.0859 148.305 67.0223 148.523 66.9777C148.632 66.9553 148.716 66.9377 148.775 66.9255C148.804 66.9193 148.826 66.9145 148.842 66.9111C148.85 66.9095 148.856 66.9081 148.861 66.9071C148.863 66.9066 148.865 66.9062 148.867 66.9059C148.867 66.9058 148.868 66.9057 148.868 66.9056C148.869 66.9055 148.869 66.9054 148.869 66.9054C148.869 66.9053 148.87 66.9053 148.238 63.9726C147.606 61.0399 147.606 61.0399 147.606 61.0398C147.606 61.0398 147.606 61.0398 147.606 61.0398C147.606 61.0398 147.606 61.0398 147.606 61.0398C147.606 61.0399 147.605 61.04 147.604 61.0403C147.602 61.0408 147.598 61.0416 147.592 61.0428C147.581 61.0452 147.563 61.049 147.539 61.0541C147.49 61.0644 147.415 61.0799 147.317 61.1002C147.12 61.1407 146.826 61.1998 146.449 61.2728C145.695 61.4188 144.609 61.6197 143.297 61.8362C140.663 62.2707 137.151 62.7623 133.582 63.007L133.992 68.993ZM152.722 26C150.113 26 148.133 27.5107 146.769 29.1144C145.391 30.7337 144.296 32.8328 143.419 34.9458L148.961 37.246C149.732 35.3867 150.543 33.9379 151.339 33.0023C152.148 32.0511 152.61 32 152.722 32V26ZM143.419 34.9458C142.169 37.9575 141.654 41.4019 141.082 43.8052L146.918 45.1948C147.672 42.0308 147.955 39.6698 148.961 37.246L143.419 34.9458ZM141.082 43.8052C140.525 46.144 140.211 47.7455 139.824 48.9576C139.638 49.5427 139.51 49.7741 139.477 49.8227C139.465 49.8403 139.738 49.4366 140.383 49.3011L141.617 55.1729C143.019 54.8782 143.918 53.9679 144.45 53.1801C144.961 52.4232 145.295 51.5504 145.54 50.7811C146.018 49.2844 146.447 47.1766 146.918 45.1948L141.082 43.8052ZM126.948 42.5005C120.492 42.6132 116.319 45.3885 113.659 48.1681C112.364 49.5216 111.441 50.8603 110.826 51.7637C110.488 52.2599 110.315 52.5146 110.187 52.6769C110.126 52.7535 110.159 52.7006 110.268 52.6047C110.335 52.5461 110.755 52.1734 111.478 52.0457L112.522 57.9543C113.395 57.8 113.979 57.3313 114.224 57.116C114.512 56.8634 114.739 56.5931 114.892 56.4003C115.19 56.0238 115.519 55.5314 115.784 55.142C116.376 54.2743 117.065 53.2873 117.994 52.3164C119.783 50.4472 122.508 48.5789 127.052 48.4995L126.948 42.5005ZM133.179 63.0622L117.547 66.2966L118.762 72.1722L134.395 68.9378L133.179 63.0622Z" fill="black"/>
</svg>
