<svg width="99" height="91" viewBox="0 0 99 91" fill="none" xmlns="http://www.w3.org/2000/svg">
<path d="M21.3845 52.2563L20.1766 54.4995C21.0604 54.9754 22.1413 54.888 22.9372 54.2762C23.7331 53.6644 24.0955 52.6424 23.8629 51.6659L21.3845 52.2563ZM48.0101 3L48.0383 0.452418C48.0195 0.452209 48.0006 0.452209 47.9818 0.452418L48.0101 3ZM17.1383 59.0503L19.1504 60.6131C19.6449 59.9764 19.8089 59.1433 19.5926 58.3667C19.3763 57.5901 18.8053 56.9617 18.0528 56.6723L17.1383 59.0503ZM20.9599 69.2412L22.8773 70.9189C23.6107 70.0807 23.7147 68.8633 23.134 67.9129C22.5533 66.9625 21.4225 66.4994 20.342 66.7695L20.9599 69.2412ZM24.7815 84.5276L23.7531 82.1967L24.7815 84.5276ZM76.7104 52.437L74.2097 51.9493C74.0237 52.9035 74.3969 53.8805 75.1718 54.4676C75.9467 55.0548 76.9882 55.1497 77.8565 54.7123L76.7104 52.437ZM81.262 59.2493L80.3995 56.852C79.618 57.1332 79.0226 57.7777 78.804 58.579C78.5855 59.3803 78.7713 60.2379 79.3019 60.8769L81.262 59.2493ZM77.1655 69.4679L77.7456 66.9871C76.6529 66.7316 75.5216 67.2211 74.9599 68.1926C74.3981 69.1641 74.5382 70.3888 75.3048 71.2083L77.1655 69.4679ZM21.3845 52.2563C23.8629 51.6659 23.863 51.6666 23.8632 51.6671C23.8632 51.667 23.8632 51.6674 23.8632 51.6672C23.8631 51.667 23.8629 51.666 23.8625 51.6642C23.8617 51.6608 23.8602 51.6544 23.858 51.6451C23.8537 51.6266 23.8468 51.5967 23.8376 51.5556C23.8191 51.4735 23.7911 51.3471 23.7555 51.1793C23.6843 50.8436 23.5828 50.3429 23.4658 49.7007C23.2317 48.4153 22.9365 46.5683 22.6977 44.3474C22.2182 39.8864 21.9768 34.0075 22.8687 28.1723C23.7633 22.3199 25.7633 16.7316 29.5798 12.6054C33.3273 8.55371 39.0696 5.64712 48.0383 5.54758L47.9818 0.452418C37.8211 0.565189 30.6706 3.92179 25.839 9.14548C21.0764 14.2947 18.8113 20.9939 17.8317 27.4024C16.8496 33.8283 17.1254 40.1838 17.6315 44.892C17.8855 47.2557 18.2003 49.2271 18.4529 50.6138C18.5792 51.3076 18.6903 51.8564 18.7709 52.2363C18.8111 52.4263 18.8438 52.5741 18.867 52.6768C18.8786 52.7281 18.8878 52.7682 18.8944 52.7967C18.8977 52.8109 18.9003 52.8222 18.9023 52.8306C18.9033 52.8347 18.9041 52.8382 18.9047 52.8409C18.905 52.8422 18.9054 52.8437 18.9056 52.8444C18.9059 52.8456 18.9061 52.8467 21.3845 52.2563ZM11.5142 51.8682C10.6754 53.378 10.506 54.9322 10.9343 56.3727C11.3345 57.7189 12.1825 58.72 12.9343 59.4002C13.6989 60.0921 14.5166 60.5898 15.1084 60.906C15.4117 61.068 15.6741 61.1921 15.8668 61.2781C15.9636 61.3213 16.0439 61.3554 16.1043 61.3803C16.1345 61.3928 16.1598 61.403 16.1798 61.411C16.1899 61.415 16.1986 61.4184 16.2059 61.4213C16.2095 61.4227 16.2128 61.424 16.2158 61.4251C16.2173 61.4257 16.2187 61.4263 16.22 61.4268C16.2207 61.427 16.2216 61.4274 16.2219 61.4275C16.2228 61.4278 16.2237 61.4282 17.1383 59.0503C18.0528 56.6723 18.0537 56.6727 18.0545 56.673C18.0547 56.6731 18.0555 56.6734 18.056 56.6736C18.057 56.6739 18.0579 56.6743 18.0587 56.6746C18.0603 56.6752 18.0616 56.6757 18.0627 56.6761C18.0647 56.6769 18.0655 56.6773 18.0651 56.6771C18.0644 56.6768 18.059 56.6747 18.0493 56.6707C18.0299 56.6626 17.9936 56.6474 17.9436 56.625C17.8428 56.58 17.6905 56.5084 17.5094 56.4117C17.1326 56.2103 16.7029 55.9384 16.3529 55.6218C15.9901 55.2935 15.8561 55.0473 15.8185 54.9206C15.8088 54.8882 15.7456 54.7439 15.9684 54.3428L11.5142 51.8682ZM1.11858 67.0288C1.9736 69.7648 4.14561 71.2528 6.33575 72.0081C8.4856 72.7494 10.9462 72.9061 13.1175 72.8497C15.325 72.7923 17.4321 72.5075 18.97 72.2431C19.7439 72.11 20.3851 71.9801 20.8371 71.8824C21.0633 71.8335 21.2428 71.7926 21.3685 71.7631C21.4313 71.7484 21.4808 71.7366 21.5159 71.7281C21.5335 71.7238 21.5476 71.7204 21.5579 71.7178C21.5631 71.7166 21.5674 71.7155 21.5707 71.7147C21.5723 71.7143 21.5738 71.7139 21.575 71.7136C21.5756 71.7135 21.5763 71.7133 21.5766 71.7132C21.5772 71.713 21.5779 71.7129 20.9599 69.2412C20.342 66.7695 20.3425 66.7694 20.3429 66.7693C20.343 66.7693 20.3434 66.7692 20.3435 66.7692C20.3438 66.7691 20.3438 66.7691 20.3436 66.7691C20.3432 66.7692 20.342 66.7696 20.3398 66.7701C20.3354 66.7712 20.3275 66.7731 20.3161 66.7759C20.2933 66.7814 20.2566 66.7902 20.207 66.8018C20.1077 66.8251 19.9567 66.8596 19.7608 66.9019C19.3685 66.9867 18.7989 67.1022 18.1065 67.2213C16.7119 67.4611 14.8647 67.7071 12.9852 67.7559C11.0694 67.8057 9.31032 67.6439 7.99683 67.1909C6.72363 66.7519 6.18865 66.1699 5.98211 65.5089L1.11858 67.0288ZM15.9684 54.3428C16.2481 53.8393 16.7146 53.5632 17.9534 53.763C18.5338 53.8567 19.1034 54.0425 19.5475 54.2191C19.7636 54.3049 19.9359 54.383 20.0483 54.4365C20.1041 54.4631 20.1443 54.4832 20.1665 54.4945C20.1776 54.5002 20.1842 54.5036 20.186 54.5045C20.1869 54.505 20.1866 54.5048 20.185 54.504C20.1843 54.5036 20.1832 54.503 20.1818 54.5023C20.1811 54.5019 20.1803 54.5015 20.1794 54.501C20.179 54.5008 20.1783 54.5004 20.1781 54.5003C20.1774 54.4999 20.1766 54.4995 21.3845 52.2563C22.5924 50.0131 22.5916 50.0127 22.5908 50.0122C22.5905 50.0121 22.5897 50.0116 22.5891 50.0113C22.5879 50.0107 22.5866 50.01 22.5852 50.0092C22.5825 50.0078 22.5794 50.0061 22.5759 50.0043C22.5691 50.0006 22.5608 49.9963 22.5512 49.9912C22.5319 49.9812 22.5073 49.9684 22.4774 49.9532C22.4178 49.9228 22.3373 49.8828 22.238 49.8356C22.0402 49.7414 21.7647 49.6171 21.4301 49.4841C20.7728 49.2228 19.8297 48.9043 18.7647 48.7326C16.7127 48.4016 13.3575 48.5502 11.5142 51.8682L15.9684 54.3428ZM17.1383 59.0503C15.1262 57.4874 15.1266 57.4869 15.127 57.4864C15.1271 57.4863 15.1275 57.4858 15.1277 57.4854C15.1282 57.4848 15.1287 57.4842 15.1291 57.4837C15.1299 57.4826 15.1307 57.4816 15.1313 57.4809C15.1325 57.4793 15.1333 57.4783 15.1335 57.478C15.1341 57.4773 15.1328 57.479 15.1296 57.4829C15.1233 57.4907 15.1097 57.5074 15.0894 57.5317C15.0485 57.5805 14.9811 57.6589 14.8905 57.7575C14.7069 57.9573 14.4412 58.2259 14.1197 58.4959C13.4091 59.0927 12.7317 59.4389 12.2296 59.486L12.7052 64.5592C14.7507 64.3675 16.4089 63.2275 17.3967 62.3979C17.9244 61.9546 18.3488 61.5249 18.6429 61.2047C18.7912 61.0433 18.9096 60.9063 18.9947 60.8046C19.0374 60.7537 19.0719 60.7115 19.098 60.6791C19.111 60.663 19.1219 60.6493 19.1306 60.6382C19.135 60.6327 19.1388 60.6278 19.1421 60.6236C19.1438 60.6215 19.1453 60.6196 19.1467 60.6178C19.1473 60.617 19.148 60.6161 19.1486 60.6153C19.1489 60.6149 19.1494 60.6144 19.1495 60.6142C19.1499 60.6136 19.1504 60.6131 17.1383 59.0503ZM12.2296 59.486C11.9253 59.5145 11.2897 59.441 9.97515 59.2985C8.86976 59.1788 7.40795 59.0344 6.04441 59.1487C4.76569 59.256 2.88634 59.6401 1.67105 61.2183C0.383989 62.8898 0.489167 65.0147 1.11858 67.0288L5.98211 65.5089C5.54995 64.126 5.9205 64.0516 5.70826 64.3272C5.56778 64.5096 5.57268 64.3016 6.47013 64.2264C7.28278 64.1583 8.28908 64.2412 9.42622 64.3644C10.3542 64.4649 11.7356 64.6501 12.7052 64.5592L12.2296 59.486ZM20.9599 69.2412C19.0426 67.5635 19.0428 67.5633 19.043 67.5631C19.043 67.563 19.0432 67.5628 19.0432 67.5628C19.0434 67.5626 19.0434 67.5626 19.0434 67.5626C19.0433 67.5627 19.0428 67.5632 19.042 67.5641C19.0404 67.566 19.0374 67.5694 19.0331 67.5743C19.0243 67.5842 19.0102 67.6002 18.9908 67.6219C18.952 67.6654 18.8924 67.7318 18.8142 67.8177C18.6576 67.9896 18.4269 68.2391 18.1386 68.54C17.5589 69.1448 16.76 69.9432 15.8703 70.734C14.9703 71.534 14.0334 72.276 13.1757 72.8038C12.2363 73.3819 11.7336 73.4874 11.6182 73.4874V78.5829C13.2013 78.5829 14.7156 77.8392 15.8462 77.1434C17.0586 76.3974 18.2447 75.4409 19.2556 74.5424C20.2767 73.6347 21.1762 72.7346 21.8174 72.0656C22.1394 71.7296 22.3997 71.4482 22.5815 71.2486C22.6725 71.1487 22.744 71.0691 22.7939 71.0131C22.8189 70.9851 22.8385 70.9629 22.8525 70.9471C22.8595 70.9392 22.8651 70.9329 22.8692 70.9281C22.8713 70.9258 22.873 70.9238 22.8743 70.9223C22.875 70.9215 22.8756 70.9209 22.8761 70.9203C22.8763 70.92 22.8766 70.9197 22.8768 70.9195C22.877 70.9192 22.8773 70.9189 20.9599 69.2412ZM11.6182 73.4874C11.2455 73.4874 10.8561 73.4748 10.4244 73.4588C10.0067 73.4434 9.5381 73.4243 9.0742 73.4176C8.15652 73.4043 7.07057 73.4329 5.99204 73.6868C4.87577 73.9495 3.71983 74.4642 2.72601 75.4415C1.74008 76.411 1.07216 77.68 0.665102 79.1962L5.58629 80.5174C5.81617 79.6612 6.10366 79.2664 6.29873 79.0746C6.4859 78.8905 6.73654 78.7463 7.15954 78.6467C7.62028 78.5383 8.20631 78.5011 9.0004 78.5126C9.39238 78.5182 9.78959 78.5343 10.2361 78.5508C10.6685 78.5668 11.1417 78.5829 11.6182 78.5829V73.4874ZM0.665102 79.1962C-0.477795 83.453 2.8771 87.185 7.19106 88.7542C11.7352 90.4072 18.1639 90.2319 25.8099 86.8586L23.7531 82.1967C16.962 85.1928 11.9258 85.0544 8.93288 83.9657C5.70976 82.7933 5.45532 81.0053 5.58629 80.5174L0.665102 79.1962ZM25.8099 86.8586C33.2837 83.5614 37.6242 80.3512 40.8278 78.0519C44.0641 75.7291 45.6409 74.7613 48.0101 74.7613V69.6658C43.7993 69.6658 40.9803 71.6704 37.8567 73.9123C34.7002 76.1777 30.7165 79.1246 23.7531 82.1967L25.8099 86.8586ZM76.7104 52.437C79.211 52.9246 79.2112 52.9235 79.2115 52.9222C79.2116 52.9215 79.2119 52.9201 79.2122 52.9187C79.2127 52.916 79.2134 52.9125 79.2142 52.9083C79.2158 52.8998 79.218 52.8884 79.2207 52.8741C79.2261 52.8455 79.2336 52.8052 79.243 52.7535C79.2618 52.6502 79.2883 52.5017 79.3205 52.3108C79.385 51.9292 79.4728 51.3781 79.5698 50.6813C79.7636 49.2888 79.9947 47.3097 80.1485 44.937C80.455 40.2097 80.4608 33.8337 79.2082 27.3914C77.9584 20.9636 75.4166 14.2712 70.4697 9.13607C65.458 3.93366 58.2029 0.565232 48.0383 0.452418L47.9818 5.54758C56.9466 5.64708 62.8438 8.56443 66.8001 12.6712C70.8212 16.8454 73.0634 22.4856 74.2064 28.364C75.3465 34.2278 75.3539 40.1315 75.0637 44.6073C74.9192 46.8361 74.7024 48.6894 74.5229 49.9789C74.4333 50.6232 74.3531 51.1254 74.2962 51.462C74.2678 51.6302 74.2452 51.7569 74.2302 51.8392C74.2227 51.8803 74.2171 51.9103 74.2137 51.9287C74.2119 51.938 74.2107 51.9443 74.21 51.9478C74.2097 51.9495 74.2095 51.9505 74.2095 51.9507C74.2094 51.9509 74.2095 51.9505 74.2095 51.9506C74.2096 51.95 74.2097 51.9493 76.7104 52.437ZM82.7128 54.5895C82.8452 54.8124 82.8692 54.9387 82.8744 54.9777C82.8788 55.0116 82.8767 55.0322 82.8664 55.0648C82.8335 55.1684 82.6968 55.417 82.2902 55.7612C81.9029 56.089 81.4279 56.37 81.0121 56.5778C80.8121 56.6778 80.6432 56.7521 80.5302 56.7993C80.4741 56.8228 80.4329 56.839 80.4098 56.8479C80.3983 56.8524 80.3914 56.855 80.3895 56.8557C80.3886 56.856 80.3889 56.8559 80.3905 56.8553C80.3914 56.855 80.3925 56.8546 80.394 56.854C80.3948 56.8537 80.3956 56.8534 80.3965 56.8531C80.3969 56.853 80.3977 56.8527 80.3979 56.8526C80.3987 56.8523 80.3995 56.852 81.262 59.2493C82.1245 61.6466 82.1253 61.6463 82.1262 61.646C82.1265 61.6459 82.1274 61.6456 82.1281 61.6454C82.1293 61.6449 82.1307 61.6444 82.1321 61.6439C82.1351 61.6428 82.1384 61.6416 82.142 61.6403C82.1493 61.6376 82.1581 61.6344 82.1683 61.6306C82.1887 61.623 82.2147 61.6131 82.246 61.6011C82.3085 61.5769 82.3922 61.5437 82.4934 61.5014C82.6951 61.4172 82.9707 61.2953 83.2899 61.1358C83.9124 60.8247 84.7745 60.3341 85.582 59.6506C86.3702 58.9836 87.2861 57.9815 87.7225 56.6082C88.1962 55.1176 88.0014 53.5156 87.0938 51.9875L82.7128 54.5895ZM93.4107 65.6802C93.1995 66.3126 92.6188 66.9348 91.169 67.4024C89.7091 67.8734 87.7771 68.0357 85.7048 67.9854C83.6677 67.9359 81.6702 67.6868 80.1659 67.4448C79.4184 67.3246 78.8031 67.2078 78.3788 67.122C78.1669 67.0792 78.0032 67.0442 77.895 67.0205C77.841 67.0087 77.8009 66.9997 77.7757 66.994C77.7631 66.9911 77.7542 66.9891 77.7491 66.9879C77.7466 66.9873 77.745 66.987 77.7445 66.9868C77.7442 66.9868 77.7441 66.9868 77.7443 66.9868C77.7444 66.9868 77.7447 66.9869 77.7448 66.9869C77.7452 66.987 77.7456 66.9871 77.1655 69.4679C76.5853 71.9487 76.5859 71.9489 76.5865 71.949C76.5868 71.9491 76.5875 71.9492 76.5881 71.9494C76.5893 71.9497 76.5908 71.95 76.5924 71.9504C76.5958 71.9512 76.6002 71.9522 76.6056 71.9534C76.6163 71.9559 76.6309 71.9592 76.6494 71.9634C76.6863 71.9718 76.7385 71.9835 76.805 71.998C76.9381 72.0272 77.1286 72.0679 77.3692 72.1165C77.8498 72.2137 78.5325 72.3431 79.3567 72.4756C80.9959 72.7393 83.2371 73.0224 85.581 73.0793C87.8896 73.1354 90.4808 72.9784 92.7333 72.2519C94.9959 71.522 97.317 70.0686 98.2436 67.2948L93.4107 65.6802ZM87.0938 51.9875C85.1423 48.7017 81.6686 48.5904 79.5733 48.9065C78.4634 49.074 77.4756 49.3854 76.7824 49.6432C76.4303 49.7742 76.1405 49.8964 75.9329 49.9889C75.8287 50.0352 75.7444 50.0745 75.6824 50.104C75.6513 50.1188 75.6258 50.1312 75.606 50.1409C75.5961 50.1457 75.5877 50.1499 75.5807 50.1533C75.5772 50.1551 75.5741 50.1566 75.5714 50.158C75.57 50.1587 75.5687 50.1593 75.5675 50.1599C75.5669 50.1602 75.5661 50.1606 75.5658 50.1608C75.565 50.1612 75.5643 50.1616 76.7104 52.437C77.8565 54.7123 77.8558 54.7127 77.855 54.7131C77.8549 54.7132 77.8542 54.7135 77.8538 54.7137C77.8529 54.7141 77.8522 54.7145 77.8515 54.7148C77.8502 54.7155 77.8493 54.716 77.8486 54.7163C77.8474 54.7169 77.8475 54.7169 77.8488 54.7162C77.8516 54.7148 77.8596 54.7109 77.8724 54.7048C77.8981 54.6926 77.9432 54.6715 78.0053 54.6439C78.1301 54.5883 78.3204 54.5077 78.5586 54.4191C79.046 54.2378 79.6797 54.0436 80.3335 53.945C81.7657 53.7289 82.3884 54.0434 82.7128 54.5895L87.0938 51.9875ZM81.262 59.2493C79.3019 60.8769 79.3023 60.8774 79.3028 60.878C79.3029 60.8782 79.3034 60.8787 79.3037 60.8791C79.3044 60.8799 79.3051 60.8807 79.3058 60.8816C79.3072 60.8833 79.3088 60.8852 79.3106 60.8873C79.3141 60.8915 79.3181 60.8963 79.3228 60.9018C79.3321 60.9128 79.3437 60.9264 79.3576 60.9425C79.3853 60.9747 79.4221 61.0169 79.4675 61.0676C79.5583 61.169 79.6845 61.3056 79.8425 61.4665C80.1562 61.7859 80.6075 62.2133 81.1674 62.6532C82.2277 63.4862 83.9539 64.5843 86.0463 64.7677L86.4914 59.6918C85.8528 59.6357 85.0756 59.2436 84.3152 58.6463C83.9647 58.371 83.6764 58.0982 83.478 57.8962C83.38 57.7964 83.307 57.717 83.2627 57.6675C83.2406 57.6429 83.2259 57.6259 83.2189 57.6178C83.2154 57.6138 83.2139 57.612 83.2144 57.6126C83.2147 57.6129 83.2155 57.6138 83.2167 57.6153C83.2174 57.6161 83.2181 57.617 83.219 57.6181C83.2195 57.6186 83.22 57.6192 83.2205 57.6198C83.2207 57.6201 83.2212 57.6206 83.2213 57.6208C83.2217 57.6213 83.2221 57.6218 81.262 59.2493ZM86.0463 64.7677C87.0403 64.8549 88.4703 64.6763 89.4914 64.5728C90.708 64.4495 91.8178 64.3625 92.7264 64.4337C93.7407 64.5133 93.8279 64.7434 93.7109 64.6011C93.4659 64.3036 93.8649 64.3208 93.4107 65.6802L98.2436 67.2948C98.9274 65.248 99.0419 63.0598 97.6449 61.3627C96.3756 59.8209 94.4431 59.4572 93.1248 59.3539C91.7007 59.2422 90.1648 59.383 88.9776 59.5033C87.5949 59.6435 86.8628 59.7243 86.4914 59.6918L86.0463 64.7677ZM77.1655 69.4679C75.3048 71.2083 75.3051 71.2086 75.3054 71.2089C75.3055 71.2091 75.3058 71.2094 75.3061 71.2097C75.3066 71.2102 75.3072 71.2109 75.308 71.2117C75.3094 71.2132 75.3112 71.2151 75.3134 71.2175C75.3178 71.2222 75.3238 71.2285 75.3312 71.2364C75.3461 71.2522 75.3671 71.2743 75.3938 71.3023C75.4472 71.3583 75.5236 71.4379 75.6209 71.5379C75.8154 71.7376 76.0939 72.0192 76.4384 72.3555C77.1247 73.0254 78.0866 73.9258 79.1779 74.8331C80.2593 75.7323 81.5221 76.6841 82.8072 77.4239C84.0187 78.1213 85.5808 78.828 87.179 78.828V73.7326C86.9566 73.7326 86.3567 73.5878 85.3493 73.0078C84.4155 72.4703 83.4025 71.719 82.4357 70.9151C81.4787 70.1194 80.62 69.3166 79.9976 68.7092C79.6879 68.4068 79.4401 68.1562 79.2719 67.9834C79.1878 67.897 79.1238 67.8303 79.0821 67.7866C79.0612 67.7647 79.0459 67.7485 79.0365 67.7385C79.0318 67.7335 79.0285 67.7301 79.0268 67.7282C79.0259 67.7273 79.0254 67.7268 79.0253 67.7266C79.0252 67.7266 79.0253 67.7266 79.0254 67.7268C79.0255 67.7268 79.0256 67.727 79.0257 67.7271C79.0259 67.7273 79.0261 67.7275 77.1655 69.4679ZM87.179 78.828C88.0017 78.828 89.3391 78.7662 89.9801 78.7575C90.8402 78.7459 91.502 78.7827 92.0363 78.9004C92.5397 79.0112 92.8483 79.1766 93.0711 79.3815C93.2929 79.5855 93.5937 79.9796 93.8335 80.8151L98.7312 79.4094C98.2883 77.8662 97.5649 76.5919 96.5208 75.6314C95.4777 74.6718 94.2785 74.1765 93.132 73.9241C92.0163 73.6784 90.8858 73.6493 89.9111 73.6625C88.7172 73.6787 88.1771 73.7326 87.179 73.7326V78.828ZM93.8335 80.8151C93.9043 81.0618 93.9123 81.522 93.3967 82.1849C92.8673 82.8654 91.8369 83.654 90.1704 84.2211C86.8615 85.347 81.3687 85.4648 74.041 82.4407L72.0971 87.1508C80.2449 90.5134 87.0415 90.6681 91.8118 89.045C94.1848 88.2375 96.1415 86.9552 97.4185 85.3136C98.7093 83.6544 99.3432 81.5415 98.7312 79.4094L93.8335 80.8151ZM74.041 82.4407C66.5582 79.3526 62.2362 76.3322 58.8147 74.0035C55.4239 71.6957 52.4206 69.6658 48.0101 69.6658V74.7613C50.6528 74.7613 52.4412 75.8293 55.9477 78.2159C59.4235 80.5816 64.1044 83.8523 72.0971 87.1508L74.041 82.4407Z" fill="#3F3E2E"/>
<ellipse cx="35.8607" cy="14.1708" rx="8.88908" ry="3.55563" transform="rotate(-34 35.8607 14.1708)" fill="#3F3E2E"/>
<path d="M36.175 61.6468C38.9665 60.7356 39.1177 57.3224 42.7967 56.6022C45.7395 56.0247 47.5076 58.0527 47.9467 60.2056C48.3144 62.0078 47.2112 66.6932 41.325 66.6932C33.9677 66.6932 31.5159 62.0078 31.025 60.2056C31.7605 60.9267 33.9677 62.3679 36.175 61.6468Z" fill="#3F3E2E" stroke="#3F3E2E" stroke-width="1.27389" stroke-linejoin="round"/>
<path d="M59.8458 61.6468C57.0534 60.7356 56.9031 57.3224 53.224 56.6022C50.2813 56.0247 48.5131 58.0527 48.0741 60.2056C47.7063 62.0078 48.8095 66.6932 54.6958 66.6932C62.053 66.6932 64.5049 62.0078 64.9957 60.2056C64.2603 60.9267 62.053 62.3679 59.8458 61.6468Z" fill="#3F3E2E" stroke="#3F3E2E" stroke-width="1.27389" stroke-linejoin="round"/>
<circle cx="40.3668" cy="48.01" r="4.24623" fill="#3F3E2E"/>
<circle cx="55.6532" cy="48.01" r="4.24623" fill="#3F3E2E"/>
</svg>
