<svg width="332" height="328" viewBox="0 0 332 328" fill="none" xmlns="http://www.w3.org/2000/svg">
<path d="M327.364 120.478L317.615 130.954L312.946 135.971L168.088 291.635C164.485 295.512 159.058 297.114 153.928 295.807L26.9043 263.59L9.72011 259.233C9.65979 259.217 9.59272 259.202 9.532 259.192C9.4986 259.184 9.47182 259.177 9.43815 259.169C6.91138 258.669 4.47427 260.102 3.58459 262.38C3.99326 260.715 4.67292 259.44 5.61506 258.198C6.21034 257.407 6.90664 256.632 7.72073 255.774L7.721 255.767L183.244 81.1515C187.377 77.0351 193.373 75.3934 199.027 76.8309L323.831 108.485C329.183 109.839 331.122 116.437 327.364 120.478Z" fill="#E8E1B6"/>
<path d="M8.42469 258.731C8.78129 258.731 9.14234 258.766 9.50354 258.837L9.5717 258.854C9.65284 258.868 9.73397 258.887 9.80673 258.906L154.01 295.48C159.019 296.754 164.319 295.193 167.84 291.405L327.117 120.248C328.802 118.436 329.389 115.938 328.688 113.566C327.989 111.195 326.142 109.418 323.747 108.813L198.944 77.1594C193.435 75.7557 187.511 77.3784 183.484 81.3907L8.01655 255.949L7.96653 256.006C7.29958 256.709 6.53093 257.544 5.8852 258.403C5.45788 258.965 5.10208 259.515 4.8062 260.079C5.79865 259.222 7.07969 258.731 8.42469 258.731ZM157.495 296.593C156.279 296.593 155.054 296.443 153.844 296.136L9.63688 259.56C9.58617 259.547 9.53263 259.534 9.48449 259.528L9.39861 259.507C7.06116 259.043 4.75793 260.307 3.89962 262.503L3.25647 262.3C3.64607 260.711 4.29057 259.383 5.34563 257.994C5.98094 257.15 6.72497 256.335 7.38273 255.638V255.633L7.4824 255.526L183.006 80.912C187.201 76.732 193.372 75.043 199.111 76.5035L323.913 108.157C326.541 108.822 328.569 110.772 329.337 113.374C330.105 115.978 329.46 118.72 327.612 120.707L168.335 291.866C165.495 294.92 161.553 296.593 157.495 296.593Z" fill="#3F3E2E"/>
<path d="M157.494 294.564C156.73 294.564 155.96 294.495 155.195 294.355C154.911 294.303 154.625 294.241 154.343 294.168L13.207 258.373L15.3554 256.236L152.475 291.016C153.686 291.323 154.911 291.473 156.125 291.473C160.185 291.473 164.128 289.8 166.966 286.745L326.243 115.588C326.703 115.094 327.089 114.553 327.399 113.977C327.949 115.878 327.475 117.876 326.127 119.325L316.397 129.781C316.39 129.788 316.385 129.795 316.378 129.802L166.849 290.484C164.398 293.12 160.996 294.564 157.494 294.564Z" fill="#C2BEA4"/>
<path d="M156.125 291.473C154.911 291.473 153.686 291.323 152.475 291.016L15.3555 256.236L15.9138 255.68L25.6189 258.143L152.642 290.36C153.796 290.654 154.966 290.797 156.126 290.797C159.999 290.797 163.763 289.201 166.472 286.286L325.748 115.128C326.312 114.521 326.755 113.839 327.068 113.105C327.196 113.374 327.304 113.655 327.391 113.949C327.394 113.958 327.396 113.968 327.399 113.977C327.089 114.553 326.703 115.094 326.243 115.588L166.967 286.745C164.128 289.8 160.185 291.473 156.125 291.473Z" fill="#C2BEA4"/>
<path d="M15.9138 255.68L11.3654 254.526L103.87 162.5L105.085 166.971L15.9138 255.68ZM127.59 144.582L126.375 140.112L184.438 82.3481C187.252 79.5462 191.077 78.0154 194.973 78.0154C196.188 78.0154 197.411 78.1641 198.612 78.4697L323.415 110.124C324.968 110.518 326.235 111.523 326.962 112.897L202.59 81.3515C201.239 81.008 199.867 80.839 198.506 80.839C194.175 80.839 189.952 82.5388 186.807 85.6707L127.59 144.582Z" fill="#FBFAF2"/>
<path d="M13.207 258.373L10.1512 257.598C10.066 257.575 9.97284 257.555 9.88237 257.537C9.88142 257.537 9.88062 257.537 9.87981 257.537C9.84113 257.528 9.79109 257.515 9.76554 257.51C9.62368 257.482 9.48223 257.459 9.34064 257.44C9.33997 257.44 9.33942 257.44 9.33874 257.44C9.33306 257.438 9.32725 257.438 9.32157 257.437C9.31914 257.437 9.31671 257.437 9.31427 257.436C9.31021 257.436 9.30656 257.436 9.30251 257.434C9.04489 257.402 8.78782 257.383 8.5321 257.379C8.66287 257.238 8.80148 257.091 8.94739 256.937C8.96592 256.918 8.98377 256.897 9.00095 256.879L10.8064 255.081L15.3554 256.236L13.207 258.373Z" fill="#E8E1B6"/>
<path d="M15.3554 256.236L10.8064 255.081L11.3653 254.526L15.9138 255.68L15.3554 256.236Z" fill="#E8E1B6"/>
<path d="M326.336 150.466L167.06 321.631C164.509 324.378 161.045 325.98 157.418 326.214C155.918 326.319 154.394 326.185 152.899 325.802L30.5711 294.775L7.34344 288.883C4.47305 288.149 2.49288 285.516 2.59404 282.555L3.20811 264.585C3.28992 263.777 3.40933 263.056 3.57404 262.392L3.58135 262.378C4.47102 260.101 6.90813 258.669 9.43477 259.168C9.46844 259.176 9.49522 259.183 9.52875 259.191L12.6611 259.989L12.0946 276.559C12.0033 279.229 13.7897 281.599 16.379 282.248L32.4508 286.284L148.673 315.451C150.343 315.874 152.043 315.993 153.706 315.82C157.142 315.47 160.403 313.897 162.833 311.279L314.655 148.584C316.229 146.899 317.143 144.696 317.222 142.39L317.402 137.104L322.801 138.473C328.154 139.828 330.093 146.425 326.336 150.466Z" fill="#E8E1B6"/>
<path d="M3.89351 262.508C3.73826 263.145 3.62413 263.836 3.54421 264.62L2.93216 282.567C2.83696 285.346 4.72747 287.865 7.42747 288.556L152.982 325.475C154.428 325.844 155.911 325.98 157.394 325.877C161.006 325.643 164.35 324.054 166.812 321.399L326.089 150.235C327.772 148.424 328.361 145.926 327.659 143.553C326.96 141.183 325.112 139.407 322.719 138.801L317.726 137.535L317.56 142.402C317.479 144.788 316.535 147.065 314.903 148.815L163.08 311.51C160.636 314.142 157.319 315.791 153.741 316.157C152.022 316.335 150.286 316.209 148.589 315.779L16.296 282.576C13.5696 281.892 11.6607 279.356 11.7564 276.546L12.3137 260.248L9.44523 259.52L9.43468 259.168L9.36951 259.499C7.05235 259.041 4.75384 260.305 3.89621 262.501L3.89351 262.508ZM156.429 326.587C155.214 326.587 154.002 326.434 152.815 326.13L7.26047 289.212C4.25471 288.443 2.15026 285.638 2.25588 282.544L2.86995 264.574C2.95393 263.739 3.07347 263.017 3.23589 262.351V262.243L3.29404 262.186C4.29176 259.728 6.89264 258.321 9.50014 258.835L9.56627 258.853L13.0083 259.728L12.4325 276.571C12.3474 279.063 14.0418 281.313 16.4611 281.92L148.755 315.123C150.374 315.533 152.029 315.655 153.672 315.483C157.087 315.136 160.252 313.561 162.585 311.049L314.409 148.354C315.929 146.723 316.808 144.603 316.884 142.379L317.078 136.673L322.885 138.145C325.513 138.811 327.54 140.761 328.308 143.361C329.076 145.966 328.432 148.708 326.584 150.696L167.307 321.861C164.728 324.641 161.223 326.307 157.438 326.552C157.103 326.575 156.766 326.587 156.429 326.587Z" fill="#3F3E2E"/>
<path d="M30.1193 292.917L23.7734 291.307C24.3585 289.549 25.0528 287.903 25.8778 286.376L31.4189 287.766C30.6697 289.033 29.834 290.959 30.1193 292.917ZM11.1239 288.099L7.76557 287.247C5.67708 286.713 4.21376 284.764 4.28719 282.614L4.89924 264.703C4.96861 264.038 5.06367 263.453 5.18903 262.922C5.74063 261.595 7.02844 260.761 8.42563 260.761C8.63903 260.761 8.85525 260.78 9.07162 260.82C9.08352 260.823 9.09664 260.827 9.10516 260.829C9.10827 260.83 9.11138 260.83 9.11449 260.831L10.9282 261.292L10.4081 276.502C10.4054 276.583 10.4039 276.663 10.4039 276.744C10.4017 279.036 11.4848 281.156 13.2163 282.529C12.3624 284.24 11.6669 286.091 11.1239 288.099Z" fill="#C2BEA4"/>
<path d="M9.88252 257.537C9.97299 257.555 10.0662 257.575 10.1514 257.598L154.343 294.168C158.872 295.322 163.664 293.91 166.849 290.484L326.127 119.325C327.482 117.869 327.955 115.858 327.391 113.949C326.829 112.041 325.342 110.611 323.415 110.124L198.612 78.4697C193.561 77.1837 188.13 78.6712 184.438 82.3482L9.0011 256.879C8.98392 256.897 8.96607 256.918 8.94755 256.937C8.80163 257.091 8.66302 257.238 8.53226 257.379C8.94092 257.386 9.3531 257.429 9.76569 257.51C9.79138 257.515 9.84358 257.528 9.88252 257.537ZM157.495 297.946C156.168 297.946 154.831 297.783 153.51 297.446L9.30482 260.872C9.25398 260.865 9.19447 260.85 9.14498 260.838C9.12983 260.835 9.06844 260.819 9.05397 260.815C7.43947 260.497 5.77884 261.409 5.15935 262.995C4.83521 263.824 3.92592 264.261 3.07424 263.992C2.225 263.722 1.73046 262.842 1.94236 261.977C2.37889 260.2 3.09601 258.719 4.26873 257.176C4.94352 256.279 5.72461 255.425 6.41063 254.697C6.44754 254.653 6.48663 254.609 6.52815 254.567L182.053 79.9519C186.583 75.4393 193.249 73.615 199.445 75.1931L324.246 106.846C327.341 107.629 329.729 109.927 330.634 112.991C331.54 116.058 330.78 119.288 328.603 121.63H328.601L169.325 292.787C166.227 296.121 161.924 297.946 157.495 297.946Z" fill="#3F3E2E"/>
<path d="M326.339 150.468H326.346H326.339ZM4.89921 264.703L4.28716 282.614C4.21373 284.764 5.67705 286.713 7.76554 287.247L153.318 324.165C157.849 325.317 162.64 323.905 165.824 320.481L325.102 149.315C326.457 147.858 326.928 145.847 326.365 143.937C325.802 142.031 324.316 140.601 322.39 140.114L319.023 139.26L318.915 142.45C318.821 145.162 317.749 147.751 315.895 149.739L164.073 312.434C160.055 316.758 153.995 318.543 148.26 317.091L15.9705 283.889C12.6299 283.05 10.2906 279.943 10.4081 276.502L10.9283 261.292L9.11445 260.831C9.11445 260.831 9.09147 260.825 9.07159 260.82C7.43936 260.516 5.82485 261.394 5.189 262.922C5.06364 263.453 4.96858 264.038 4.89921 264.703ZM156.471 327.942C155.143 327.942 153.806 327.778 152.485 327.441L6.93158 290.524C3.31242 289.599 0.780917 286.223 0.907628 282.499L1.52171 264.53C1.52306 264.492 1.52563 264.454 1.52901 264.418C1.62016 263.517 1.75349 262.722 1.93632 261.986H1.937C1.96012 261.893 1.99122 261.802 2.02949 261.714C3.2609 258.632 6.51291 256.866 9.76559 257.51C9.80062 257.517 9.88189 257.537 9.9161 257.545L13.0817 258.351C13.8516 258.547 14.3811 259.253 14.3541 260.048L13.7875 276.618C13.724 278.477 14.9886 280.156 16.7939 280.61L149.086 313.813C153.627 314.961 158.419 313.549 161.598 310.129L313.423 147.432C314.72 146.041 315.47 144.231 315.535 142.335L315.715 137.047C315.733 136.536 315.982 136.06 316.39 135.753C316.8 135.446 317.327 135.342 317.821 135.466L323.22 136.835C326.316 137.619 328.704 139.916 329.609 142.98C330.513 146.047 329.755 149.276 327.578 151.618L168.301 322.783C165.203 326.116 160.9 327.942 156.471 327.942Z" fill="#3F3E2E"/>
<path d="M156.824 324.554L154.292 317.457C157.981 316.986 161.459 315.246 164.073 312.434L315.895 149.739C317.749 147.751 318.822 145.162 318.915 142.45L319.023 139.26L322.39 140.114C324.316 140.601 325.802 142.031 326.365 143.937C326.929 145.847 326.457 147.858 325.102 149.315L165.824 320.481C163.457 323.028 160.202 324.461 156.824 324.554Z" fill="#C2BEA4"/>
<path d="M157.418 326.214L156.824 324.554C160.202 324.461 163.457 323.028 165.824 320.481L325.102 149.315C326.457 147.858 326.929 145.847 326.365 143.937C325.802 142.031 324.316 140.601 322.39 140.114L319.023 139.26L319.083 137.53L322.801 138.473C328.154 139.828 330.093 146.425 326.336 150.466L167.06 321.631C164.509 324.379 161.045 325.98 157.418 326.214ZM154.292 317.457C157.981 316.984 161.459 315.246 164.073 312.434C161.459 315.246 157.981 316.986 154.292 317.457Z" fill="#3F3E2E"/>
<path d="M153.929 297.499C153.791 297.499 153.652 297.481 153.512 297.446L153.435 297.427L9.11443 260.831C8.24422 260.609 7.69952 259.747 7.87315 258.865C8.04679 257.983 8.8913 257.395 9.76827 257.518C9.89174 257.536 10.029 257.565 10.1512 257.598L154.343 294.168C155.247 294.398 155.796 295.318 155.567 296.224C155.372 296.989 154.684 297.499 153.929 297.499Z" fill="#3F3E2E"/>
<path d="M317.613 130.952L317.222 142.39C317.143 144.696 316.229 146.899 314.655 148.584L162.833 311.279C160.599 313.686 157.659 315.21 154.523 315.712C152.604 316.019 150.617 315.944 148.673 315.451L16.3789 282.248C13.7896 281.598 12.0033 279.229 12.0945 276.558L12.661 259.989L153.924 295.806C159.054 297.112 164.481 295.511 168.085 291.634L312.942 135.969L317.613 130.952Z" fill="white"/>
<path d="M12.9845 260.419L12.4324 276.571C12.3473 279.063 14.0418 281.313 16.461 281.92L148.755 315.123C150.631 315.599 152.552 315.685 154.468 315.379C157.573 314.881 160.455 313.344 162.585 311.049L314.409 148.354C315.929 146.723 316.808 144.603 316.884 142.379L317.243 131.845L168.332 291.865C164.642 295.834 159.089 297.471 153.841 296.134L12.9845 260.419ZM152.221 316.234C151 316.234 149.785 316.082 148.589 315.779L16.2959 282.576C13.5695 281.892 11.6606 279.355 11.7564 276.546L12.3373 259.557L12.7442 259.66L154.007 295.479C159.015 296.754 164.315 295.193 167.836 291.404L317.982 130.06L317.56 142.402C317.479 144.788 316.535 147.065 314.902 148.815L163.08 311.51C160.849 313.914 157.829 315.525 154.575 316.046C153.791 316.171 153.004 316.234 152.221 316.234Z" fill="#3F3E2E"/>
<path d="M154.581 313.989L154.851 306.081C154.926 303.911 153.473 301.984 151.368 301.46L14.1086 267.222L14.2821 262.144L153.51 297.446C154.831 297.783 156.17 297.946 157.496 297.946C161.926 297.946 166.227 296.119 169.325 292.787L314.183 137.123L315.771 135.416L315.535 142.335C315.471 144.231 314.72 146.041 313.423 147.432L161.598 310.129C159.701 312.17 157.23 313.497 154.581 313.989Z" fill="#B2B2D4"/>
<path d="M14.282 262.144L13.7873 276.618C13.7239 278.477 14.9884 280.157 16.7937 280.61L149.086 313.813C153.627 314.961 158.418 313.549 161.598 310.129L313.423 147.432C314.72 146.041 315.47 144.231 315.535 142.335L315.771 135.416L314.183 137.123L169.325 292.787C165.299 297.119 159.242 298.904 153.51 297.446L14.282 262.144ZM152.238 317.587C150.913 317.587 149.579 317.425 148.26 317.091L15.9703 283.889C12.6298 283.05 10.2904 279.943 10.4079 276.502L10.9745 259.932C10.9916 259.421 11.2399 258.945 11.6487 258.638C12.0581 258.331 12.5843 258.227 13.0795 258.351L154.343 294.168C158.876 295.322 163.664 293.91 166.849 290.485L316.378 129.802C316.858 129.285 317.606 129.12 318.262 129.391C318.913 129.66 319.33 130.306 319.305 131.011L318.915 142.45C318.821 145.162 317.749 147.751 315.895 149.739L164.072 312.434C160.978 315.763 156.673 317.587 152.238 317.587Z" fill="#3F3E2E"/>
<path d="M19.1773 274.748C12.1288 281.05 9.19589 290.041 9.69475 303.821L16.1362 298.458L21.1132 306.241C22.0991 293.749 24.7642 284.179 32.7103 278.602L19.1773 274.748Z" fill="#FCBC06"/>
<path d="M10.3066 304.067C10.2977 303.819 10.29 303.575 10.2832 303.33L12.8175 301.22C12.8148 301.472 12.8135 301.725 12.8134 301.98L10.3066 304.067Z" fill="#FFF6E8"/>
<path d="M33.235 278.916L32.5453 278.718C32.575 278.698 32.6061 278.675 32.6359 278.655L33.3256 278.851C33.2972 278.87 33.262 278.895 33.235 278.916Z" fill="white"/>
<path d="M10.2832 303.33C9.91647 289.968 12.8689 281.181 19.7907 274.997L32.636 278.655C32.6063 278.675 32.5752 278.698 32.5454 278.718L22.354 275.815C15.9522 281.54 12.9435 289.489 12.8176 301.22L10.2832 303.33Z" fill="#FEEBB4"/>
<path d="M16.1362 296.766C16.2221 296.766 16.3093 296.773 16.3952 296.786C16.8751 296.861 17.2991 297.138 17.5606 297.546L19.9178 301.233C20.9366 293.155 23.1778 284.982 29.1376 279.342L19.6287 276.634C14.0498 281.992 11.4343 289.403 11.3346 300.255L15.0547 297.158C15.3604 296.903 15.7434 296.766 16.1362 296.766ZM21.1137 307.932C20.5465 307.933 20.005 307.647 19.6894 307.153L15.7448 300.984L10.7767 305.119C10.282 305.533 9.59342 305.628 9.00571 305.364C8.41665 305.101 8.0284 304.525 8.00527 303.882C7.48572 289.537 10.5838 280.162 18.0506 273.487C18.483 273.101 19.0826 272.961 19.6406 273.122L33.1743 276.975C33.8017 277.154 34.2696 277.677 34.3778 278.319C34.4873 278.963 34.2155 279.611 33.6827 279.985C27.1521 284.568 23.8975 292.462 22.7994 306.375C22.7419 307.099 22.2289 307.706 21.5237 307.882C21.3876 307.916 21.2497 307.932 21.1137 307.932Z" fill="#3F3E2E"/>
<path d="M92.4346 21.1432L148.793 228.394L147.381 256.849C147.207 260.342 142.674 261.575 140.755 258.653L125.129 234.835L68.7707 27.5842C67.9851 24.6957 69.6863 21.7219 72.5734 20.9363L85.7894 17.3391C88.6766 16.5535 91.6489 18.2547 92.4346 21.1432Z" fill="#62614D"/>
<path d="M101.958 56.1636L78.2937 62.6046L76.4424 55.7971L100.108 49.3575L101.958 56.1636Z" fill="#FCBC06"/>
<path d="M142.078 228.632L95.6451 57.881L100.48 56.5666L146.912 227.317L142.078 228.632ZM93.7951 51.0749L86.1222 22.8619C85.7233 21.3919 84.7564 20.229 83.5231 19.5447L86.1898 18.8185C86.5292 18.7266 86.8727 18.6805 87.2148 18.6805C87.8829 18.6805 88.5428 18.855 89.1378 19.1958C90.0384 19.711 90.6835 20.5467 90.9567 21.5474L98.6282 49.7591L93.7951 51.0749Z" fill="#3F3E2E"/>
<path d="M95.6449 57.881L93.7949 51.0749L98.628 49.7591L100.479 56.5666L95.6449 57.881Z" fill="#B08327"/>
<path d="M148.793 228.394L147.381 256.849C147.346 257.564 147.127 258.182 146.784 258.696C145.46 260.67 142.283 260.976 140.755 258.653L125.129 234.835L148.793 228.394Z" fill="#FCBC06"/>
<path d="M126.205 232.952L79.773 62.2016L82.0922 61.5701L128.525 232.321L126.205 232.952ZM77.9217 55.3955L70.2501 27.1838C69.6875 25.1161 70.9114 22.9768 72.9777 22.4142L73.1305 22.3737C72.4138 23.588 72.169 25.0796 72.5693 26.5496L80.2409 54.7639L77.9217 55.3955Z" fill="#ADAC98"/>
<path d="M79.7729 62.2016L77.9216 55.3955L80.2408 54.764L82.0921 61.5701L79.7729 62.2016Z" fill="#FEEBB4"/>
<path d="M143.748 258.753C143.151 258.753 142.493 258.507 142.037 257.81L127.569 235.76L129.811 235.148L144.349 257.307L144.44 258.639C144.399 258.653 144.359 258.665 144.318 258.677C144.142 258.724 143.948 258.753 143.748 258.753Z" fill="#FEEBB4"/>
<path d="M126.544 234.196L142.037 257.81C142.647 258.741 143.618 258.866 144.318 258.677C145.023 258.485 145.795 257.885 145.85 256.772L147.25 228.561L90.9565 21.5475C90.6834 20.5468 90.0383 19.711 89.1377 19.1958C88.237 18.6806 87.1904 18.5454 86.1897 18.8185L72.9777 22.4143C70.9114 22.9768 69.6876 25.1162 70.2501 27.1838L126.544 234.196ZM143.73 261.824C142.033 261.824 140.452 260.985 139.473 259.492L123.847 235.676C123.758 235.541 123.692 235.392 123.65 235.236L67.2913 27.9884C66.2865 24.2899 68.4759 20.4629 72.1731 19.4554L85.385 15.8597C87.1755 15.3729 89.0498 15.6122 90.6617 16.5345C92.2723 17.4567 93.4272 18.951 93.914 20.7428L150.272 227.991C150.314 228.148 150.332 228.308 150.324 228.469L148.912 256.924C148.8 259.191 147.312 261.04 145.124 261.636C144.656 261.762 144.188 261.824 143.73 261.824Z" fill="#3F3E2E"/>
<path d="M79.6634 1.73759L69.9525 4.37996C68.1973 4.85867 67.16 6.66944 67.6374 8.42607L71.1453 21.3243L87.2173 16.9509L83.7108 4.05271C83.2321 2.29607 81.4214 1.25887 79.6634 1.73759Z" fill="#FCBC06"/>
<path d="M75.2292 2.94257L79.6661 1.73495C79.9555 1.65652 80.2463 1.61863 80.5316 1.61863C81.3132 1.61863 82.0597 1.89994 82.6439 2.38812C82.0597 1.9013 81.3132 1.62133 80.5316 1.62133C80.2449 1.62133 79.9542 1.65786 79.6634 1.73765L75.3415 2.91415C75.3036 2.92226 75.2658 2.93175 75.2292 2.94257Z" fill="#B1A4B2"/>
<path d="M82.7778 18.1586L87.2161 16.951L82.7778 18.1586Z" fill="#3F3E2E"/>
<path d="M82.7778 18.1586L79.2713 5.26171C78.8724 3.79311 77.5444 2.8262 76.0948 2.8262C75.846 2.8262 75.5931 2.8546 75.3416 2.9141L79.6635 1.7376C79.9542 1.65781 80.245 1.62128 80.5317 1.62128C81.3133 1.62128 82.0598 1.90125 82.644 2.38807C83.143 2.80729 83.5243 3.37795 83.7082 4.0541L87.2161 16.951L82.7778 18.1586Z" fill="#B08327"/>
<path d="M67.9229 5.98792C68.3353 5.22387 69.048 4.6248 69.9513 4.37868L73.0224 3.54295C72.9845 3.55377 72.9466 3.56456 72.9088 3.57538L69.9526 4.38C69.0493 4.62612 68.3367 5.22522 67.9229 5.98792Z" fill="#FFF9F0"/>
<path d="M71.1482 21.3243L74.2179 20.4886L71.1482 21.3243Z" fill="#B2B2D4"/>
<path d="M71.1481 21.3243L67.6402 8.42739C67.409 7.57409 67.532 6.70729 67.9228 5.98787C68.3366 5.22517 69.0493 4.62607 69.9526 4.37995L72.9087 3.57533C71.2211 4.09867 70.2434 5.87154 70.7113 7.59166L74.2178 20.4886L71.1481 21.3243Z" fill="#FEEBB4"/>
<path d="M80.0666 3.21703L70.3557 5.85946C69.4186 6.11504 68.8614 7.08599 69.117 8.02313L72.2219 19.4433L85.3365 15.8745L82.2316 4.45576C82.1072 4.00139 81.8151 3.62139 81.4054 3.38744C80.997 3.15485 80.5223 3.09398 80.0666 3.21703ZM71.1455 22.8578C70.8804 22.8578 70.6181 22.7889 70.3841 22.655C70.0312 22.4535 69.7729 22.1195 69.6661 21.7273L66.1582 8.82775C65.4604 6.25974 66.9817 3.60113 69.5498 2.90199L79.2606 0.258247C80.5061 -0.078476 81.8083 0.0864735 82.928 0.72611C84.0477 1.3671 84.851 2.40568 85.1904 3.65114L88.6969 16.548C88.9201 17.3648 88.4373 18.2073 87.6205 18.4304L71.5485 22.8038C71.4159 22.8403 71.2807 22.8578 71.1455 22.8578Z" fill="#3F3E2E"/>
<path d="M100.108 49.3575C107.514 47.3412 115.152 51.7146 117.167 59.1238L128.004 98.9747C128.982 102.573 126.857 106.278 123.267 107.256L121.905 102.249C118.869 103.075 115.739 101.282 114.914 98.2458C114.088 95.2099 115.879 92.078 118.914 91.2517L110.687 60.9967C109.649 57.1819 105.718 54.9303 101.905 55.9675L100.108 49.3575Z" fill="#FCBC06"/>
<path d="M123.289 107.249C123.289 107.249 123.29 107.249 123.291 107.249C123.29 107.249 123.289 107.249 123.289 107.249ZM123.31 107.244C123.312 107.243 123.313 107.243 123.314 107.243C123.313 107.243 123.312 107.243 123.31 107.244ZM123.332 107.237C123.333 107.237 123.336 107.237 123.337 107.236C123.335 107.237 123.333 107.237 123.332 107.237ZM123.354 107.232C123.356 107.23 123.358 107.23 123.36 107.229C123.358 107.23 123.356 107.23 123.354 107.232ZM123.375 107.225C123.378 107.225 123.381 107.224 123.382 107.224C123.381 107.224 123.378 107.225 123.375 107.225ZM123.396 107.22C123.4 107.218 123.402 107.217 123.406 107.216C123.402 107.217 123.4 107.218 123.396 107.22ZM123.417 107.213C123.42 107.212 123.424 107.21 123.428 107.21C123.424 107.21 123.42 107.212 123.417 107.213ZM123.437 107.206C123.442 107.206 123.446 107.205 123.451 107.203C123.446 107.205 123.442 107.206 123.437 107.206ZM123.458 107.201C123.463 107.199 123.467 107.198 123.473 107.197C123.467 107.198 123.463 107.199 123.458 107.201ZM123.478 107.194C123.483 107.193 123.489 107.191 123.494 107.19C123.489 107.191 123.483 107.193 123.478 107.194ZM123.497 107.189C123.504 107.186 123.511 107.184 123.516 107.183C123.511 107.184 123.504 107.187 123.497 107.189ZM123.517 107.183C124.204 106.967 124.834 106.65 125.394 106.253C124.832 106.652 124.203 106.968 123.517 107.183ZM118.914 91.2517L110.687 60.9967C110.68 60.971 110.673 60.9467 110.666 60.9223C110.673 60.9467 110.68 60.971 110.687 60.9967L118.914 91.2517Z" fill="#FFF9F0"/>
<path d="M101.905 55.9675L100.108 49.3575L101.905 55.9675C101.916 55.9648 101.926 55.9621 101.937 55.9594C101.926 55.9621 101.916 55.9648 101.905 55.9675Z" fill="#B2B2D4"/>
<path d="M101.609 49.0356L101.607 49.0343C101.841 48.9978 102.074 48.968 102.306 48.9437C102.074 48.968 101.841 48.9991 101.609 49.0356Z" fill="#FFF9F0"/>
<path d="M100.108 49.3575C100.607 49.2209 101.107 49.1141 101.607 49.0343L101.609 49.0356C101.108 49.1141 100.607 49.2209 100.108 49.3575Z" fill="#B2B2D4"/>
<path d="M123.267 107.256L121.905 102.249C121.405 102.385 120.902 102.45 120.407 102.45C118.199 102.45 116.153 101.155 115.226 99.114C115.1 98.8381 114.996 98.5474 114.914 98.2458C114.831 97.9442 114.776 97.6413 114.743 97.3397C114.723 97.1437 114.712 96.949 114.712 96.7542C114.71 94.2444 116.377 91.9427 118.914 91.2517L110.687 60.9967C110.68 60.971 110.673 60.9467 110.666 60.9224C109.775 57.7769 106.914 55.7147 103.79 55.7147C103.179 55.7147 102.557 55.7944 101.937 55.9594C101.926 55.9621 101.916 55.9648 101.905 55.9675L100.108 49.3575C100.607 49.2209 101.108 49.1141 101.609 49.0356C101.841 48.9991 102.074 48.968 102.306 48.9437C102.485 48.9248 102.663 48.9099 102.842 48.8991L104.567 55.244C105.196 55.0723 105.83 54.9898 106.453 54.9898C109.601 54.9898 112.482 57.0845 113.349 60.2719L121.577 90.5269C118.542 91.3531 116.75 94.4851 117.575 97.521C118.265 100.057 120.562 101.725 123.07 101.725C123.565 101.725 124.066 101.66 124.567 101.524L125.774 105.963C125.651 106.063 125.524 106.161 125.394 106.253C124.834 106.65 124.204 106.967 123.517 107.183H123.516C123.51 107.184 123.504 107.186 123.497 107.189C123.497 107.189 123.496 107.189 123.494 107.19C123.489 107.191 123.483 107.193 123.478 107.194C123.477 107.195 123.474 107.195 123.473 107.197C123.467 107.198 123.463 107.199 123.458 107.201C123.455 107.202 123.452 107.202 123.451 107.203C123.446 107.205 123.441 107.206 123.437 107.206C123.435 107.207 123.431 107.209 123.428 107.21C123.424 107.21 123.42 107.212 123.417 107.213C123.413 107.214 123.409 107.216 123.406 107.216C123.402 107.217 123.4 107.218 123.395 107.22C123.391 107.221 123.387 107.222 123.382 107.224C123.381 107.224 123.378 107.225 123.375 107.225C123.37 107.226 123.364 107.228 123.36 107.229C123.358 107.23 123.356 107.23 123.354 107.232C123.348 107.233 123.343 107.235 123.337 107.236C123.336 107.237 123.333 107.237 123.332 107.237C123.327 107.239 123.32 107.241 123.314 107.243C123.313 107.243 123.312 107.243 123.31 107.244C123.304 107.245 123.298 107.247 123.291 107.249C123.29 107.249 123.289 107.249 123.289 107.249C123.281 107.252 123.274 107.253 123.267 107.256Z" fill="#FEEBB4"/>
<path d="M78.3247 56.8749L79.3701 60.7222L100.076 55.0872L99.0298 51.2385L78.3247 56.8749ZM78.2936 64.1368C78.0286 64.1368 77.7662 64.0692 77.5323 63.9353C77.1793 63.7324 76.921 63.3984 76.8142 63.0062L74.9643 56.2001C74.7411 55.3833 75.2239 54.5408 76.0407 54.3177L99.7046 47.8781C100.098 47.7713 100.516 47.824 100.868 48.0268C101.222 48.2283 101.48 48.5623 101.586 48.9545L103.437 55.762C103.659 56.5788 103.177 57.4199 102.36 57.643L78.6966 64.084C78.5641 64.1192 78.4288 64.1368 78.2936 64.1368Z" fill="#3F3E2E"/>
<path d="M121.905 100.715C122.169 100.715 122.433 100.784 122.667 100.918C123.02 101.121 123.278 101.454 123.383 101.847L124.283 105.152C126.164 103.959 127.139 101.636 126.525 99.3764L115.687 59.5269C114.821 56.3381 112.764 53.6782 109.898 52.0365C107.479 50.6517 104.726 50.1311 102.013 50.5246L103.016 54.2164C104.774 54.0554 106.536 54.4368 108.098 55.332C110.112 56.4855 111.558 58.3544 112.166 60.5938L120.393 90.8501C120.615 91.6669 120.134 92.5081 119.317 92.7312C117.102 93.3343 115.79 95.6278 116.392 97.8442C116.685 98.9166 117.376 99.8132 118.342 100.365C119.308 100.918 120.429 101.061 121.502 100.769C121.635 100.733 121.77 100.715 121.905 100.715ZM123.266 108.79C123.002 108.79 122.738 108.721 122.504 108.587C122.151 108.384 121.893 108.05 121.788 107.658L120.784 103.974C119.416 104.047 118.043 103.727 116.819 103.026C115.144 102.067 113.94 100.512 113.435 98.6488C112.526 95.3087 114.123 91.8671 117.075 90.3336L109.207 61.3984C108.812 59.9488 107.879 58.7398 106.576 57.9933C105.272 57.2482 103.756 57.0521 102.308 57.447C101.914 57.5538 101.496 57.5011 101.143 57.2983C100.791 57.0968 100.532 56.7627 100.425 56.3706L98.6282 49.7592C98.4051 48.9424 98.8878 48.0999 99.7046 47.8781C103.683 46.795 107.844 47.3278 111.421 49.3751C114.999 51.4239 117.564 54.7438 118.646 58.7222L129.484 98.5717C130.682 102.978 128.073 107.536 123.669 108.736C123.536 108.771 123.401 108.79 123.266 108.79Z" fill="#3F3E2E"/>
<path d="M125.128 236.368C124.453 236.368 123.835 235.919 123.65 235.236C123.427 234.42 123.909 233.577 124.726 233.355L148.39 226.914C149.212 226.692 150.051 227.175 150.272 227.991C150.494 228.807 150.013 229.651 149.196 229.873L125.531 236.314C125.397 236.351 125.26 236.368 125.128 236.368Z" fill="#3F3E2E"/>
<path d="M122.714 227.183C122.174 227.183 121.679 226.825 121.531 226.279C121.352 225.626 121.739 224.951 122.392 224.774L146.056 218.333C146.711 218.155 147.384 218.541 147.562 219.194C147.741 219.847 147.354 220.522 146.701 220.699L123.037 227.14C122.929 227.17 122.819 227.183 122.714 227.183Z" fill="#3F3E2E"/>
<path d="M120.3 218.306C119.761 218.306 119.266 217.946 119.117 217.401C118.938 216.748 119.324 216.073 119.978 215.894L143.642 209.455C144.295 209.278 144.97 209.663 145.147 210.316C145.326 210.969 144.94 211.644 144.286 211.821L120.622 218.262C120.515 218.291 120.406 218.306 120.3 218.306Z" fill="#3F3E2E"/>
<path d="M117.885 209.428C117.347 209.428 116.852 209.069 116.703 208.523C116.524 207.87 116.91 207.195 117.564 207.017L141.228 200.577C141.881 200.398 142.555 200.785 142.733 201.438C142.912 202.092 142.526 202.766 141.872 202.943L118.208 209.384C118.101 209.413 117.992 209.428 117.885 209.428Z" fill="#3F3E2E"/>
<path d="M115.471 200.55C114.932 200.55 114.438 200.192 114.289 199.645C114.111 198.992 114.496 198.317 115.149 198.14L138.815 191.699C139.466 191.521 140.141 191.907 140.32 192.56C140.498 193.214 140.111 193.888 139.458 194.066L115.794 200.507C115.686 200.535 115.578 200.55 115.471 200.55Z" fill="#3F3E2E"/>
<path d="M113.057 191.672C112.518 191.672 112.023 191.314 111.875 190.767C111.697 190.114 112.082 189.439 112.735 189.262L136.399 182.821C137.051 182.644 137.727 183.028 137.906 183.683C138.083 184.336 137.697 185.011 137.044 185.188L113.38 191.629C113.272 191.659 113.164 191.672 113.057 191.672Z" fill="#3F3E2E"/>
<path d="M110.642 182.794C110.104 182.794 109.609 182.434 109.46 181.889C109.282 181.236 109.667 180.562 110.322 180.383L133.985 173.943C134.637 173.766 135.313 174.15 135.491 174.805C135.669 175.458 135.284 176.133 134.63 176.31L110.965 182.751C110.858 182.779 110.749 182.794 110.642 182.794Z" fill="#3F3E2E"/>
<path d="M145.1 258.281C144.901 258.09 144.717 257.87 144.554 257.618L144.349 257.307L142.587 231.672L147.157 230.428L145.85 256.772C145.815 257.467 145.501 257.96 145.1 258.281Z" fill="#B08327"/>
<path d="M144.44 258.639L144.349 257.307L144.553 257.618C144.717 257.87 144.901 258.09 145.1 258.281C144.894 258.446 144.667 258.563 144.44 258.639Z" fill="#B1A4A0"/>
<path d="M144.484 259.283L144.44 258.639C144.667 258.564 144.894 258.446 145.1 258.281C145.501 257.96 145.815 257.467 145.85 256.772L147.157 230.428L148.713 230.004L147.381 256.849C147.346 257.564 147.127 258.182 146.783 258.696C145.389 259.056 144.484 259.283 144.484 259.283Z" fill="#3F3E2E"/>
<path d="M142.587 231.672L142.48 230.112L148.793 228.394L148.713 230.004L147.157 230.428L142.587 231.672Z" fill="#3F3E2E"/>
<path d="M201.224 131.727L199.334 132.611C199.69 132.99 200.451 133.13 201.277 132.968C202.102 132.806 202.839 132.372 203.157 131.859L201.224 131.727ZM242.8 112.339L244.054 111.109C244.042 111.105 244.029 111.102 244.017 111.099L242.8 112.339ZM195.108 134.304L195.688 135.401C196.325 135.176 196.838 134.8 197.071 134.387C197.303 133.974 197.229 133.573 196.869 133.306L195.108 134.304ZM192.707 139.89L193.168 141.027C194.062 140.745 194.721 140.172 194.796 139.613C194.871 139.054 194.344 138.639 193.495 138.587L192.707 139.89ZM187.835 147.947L188.282 146.643L187.835 147.947ZM237.905 141.152L236.479 140.494C235.893 140.925 235.667 141.462 235.898 141.877C236.128 142.293 236.774 142.514 237.563 142.449L237.905 141.152ZM237.627 145.223L238.216 143.916C237.56 143.92 236.852 144.132 236.318 144.484C235.784 144.835 235.492 145.282 235.535 145.682L237.627 145.223ZM229.95 149.486L231.538 148.382C230.936 148.073 229.947 148.12 229.102 148.496C228.258 148.872 227.757 149.49 227.869 150.016L229.95 149.486ZM237.494 157.874L235.525 157.801L237.494 157.874ZM201.224 131.727C203.157 131.859 203.157 131.859 203.157 131.859C203.157 131.859 203.157 131.86 203.157 131.86C203.157 131.859 203.157 131.859 203.158 131.858C203.159 131.856 203.161 131.853 203.164 131.848C203.17 131.838 203.18 131.823 203.194 131.801C203.222 131.758 203.264 131.692 203.322 131.605C203.437 131.43 203.613 131.17 203.846 130.839C204.314 130.176 205.013 129.231 205.931 128.114C207.776 125.87 210.466 122.979 213.887 120.3C217.319 117.614 221.358 115.242 225.895 113.885C230.35 112.554 235.575 112.113 241.584 113.579L244.017 111.099C237.21 109.439 230.83 109.859 225.086 111.577C219.425 113.269 214.671 116.135 210.913 119.077C207.145 122.027 204.247 125.155 202.3 127.523C201.323 128.712 200.577 129.721 200.072 130.436C199.82 130.793 199.627 131.078 199.497 131.276C199.431 131.375 199.382 131.452 199.347 131.506C199.33 131.533 199.317 131.554 199.307 131.568C199.303 131.576 199.299 131.582 199.296 131.586C199.295 131.588 199.294 131.59 199.293 131.592C199.292 131.592 199.292 131.593 199.292 131.593C199.291 131.594 199.291 131.595 201.224 131.727ZM194.853 129.873C193.563 130.463 192.697 131.188 192.283 131.959C191.897 132.679 191.975 133.308 192.145 133.764C192.317 134.229 192.619 134.608 192.859 134.861C192.982 134.991 193.097 135.095 193.183 135.17C193.226 135.207 193.263 135.237 193.291 135.259C193.305 135.27 193.317 135.28 193.327 135.287C193.331 135.291 193.335 135.294 193.339 135.296C193.341 135.298 193.342 135.299 193.344 135.3C193.344 135.3 193.345 135.301 193.346 135.301C193.346 135.302 193.346 135.302 193.347 135.302C193.347 135.302 193.347 135.303 195.108 134.304C196.869 133.306 196.869 133.306 196.87 133.306C196.87 133.306 196.87 133.306 196.87 133.307C196.871 133.307 196.871 133.307 196.872 133.308C196.872 133.308 196.873 133.309 196.874 133.309C196.874 133.31 196.875 133.31 196.875 133.31C196.874 133.31 196.872 133.308 196.867 133.304C196.858 133.297 196.842 133.283 196.819 133.264C196.774 133.225 196.708 133.165 196.634 133.087C196.481 132.926 196.328 132.722 196.248 132.509C196.167 132.289 196.197 132.147 196.233 132.079C196.243 132.062 196.271 131.981 196.613 131.824L194.853 129.873ZM180.593 135.469C179.835 136.939 180.557 138.028 181.647 138.763C182.716 139.486 184.275 139.977 185.745 140.316C187.24 140.661 188.779 140.878 189.929 141.01C190.508 141.076 190.997 141.121 191.345 141.15C191.519 141.164 191.658 141.175 191.756 141.182C191.805 141.185 191.843 141.188 191.871 141.19C191.884 141.191 191.895 141.191 191.904 141.192C191.908 141.192 191.911 141.192 191.914 141.192C191.915 141.193 191.916 141.193 191.917 141.193C191.917 141.193 191.918 141.193 191.918 141.193C191.919 141.193 191.919 141.193 192.707 139.89C193.495 138.587 193.495 138.588 193.495 138.588C193.495 138.588 193.496 138.588 193.496 138.588C193.496 138.588 193.496 138.588 193.496 138.588C193.496 138.588 193.495 138.587 193.493 138.587C193.489 138.587 193.483 138.587 193.474 138.586C193.456 138.585 193.428 138.583 193.389 138.58C193.312 138.575 193.195 138.566 193.044 138.554C192.742 138.528 192.308 138.488 191.79 138.429C190.747 138.31 189.4 138.118 188.127 137.824C186.83 137.525 185.739 137.149 185.086 136.708C184.453 136.28 184.379 135.908 184.563 135.553L180.593 135.469ZM196.613 131.824C197.043 131.627 197.487 131.572 198.213 131.878C198.554 132.022 198.842 132.208 199.052 132.368C199.154 132.446 199.23 132.513 199.279 132.558C199.303 132.581 199.32 132.597 199.329 132.606C199.334 132.611 199.337 132.614 199.338 132.615C199.338 132.615 199.338 132.615 199.337 132.614C199.337 132.614 199.336 132.613 199.336 132.613C199.336 132.612 199.335 132.612 199.335 132.612C199.335 132.612 199.334 132.611 199.334 132.611C199.334 132.611 199.334 132.611 201.224 131.727C203.114 130.843 203.114 130.843 203.114 130.842C203.114 130.842 203.113 130.842 203.113 130.842C203.113 130.841 203.112 130.841 203.112 130.84C203.11 130.839 203.109 130.837 203.108 130.836C203.105 130.833 203.102 130.83 203.098 130.825C203.09 130.817 203.08 130.807 203.067 130.795C203.042 130.77 203.008 130.737 202.965 130.697C202.879 130.618 202.756 130.511 202.598 130.39C202.288 130.153 201.816 129.839 201.192 129.576C199.988 129.069 197.686 128.575 194.853 129.873L196.613 131.824ZM195.108 134.304C194.529 133.207 194.529 133.207 194.53 133.206C194.53 133.206 194.53 133.206 194.531 133.206C194.531 133.206 194.532 133.206 194.532 133.205C194.534 133.205 194.534 133.205 194.535 133.204C194.537 133.204 194.538 133.204 194.538 133.203C194.539 133.203 194.537 133.204 194.533 133.205C194.525 133.208 194.508 133.214 194.483 133.222C194.432 133.239 194.349 133.265 194.241 133.298C194.022 133.364 193.715 133.449 193.371 133.526C192.609 133.695 191.991 133.749 191.635 133.687L189.491 136.227C190.943 136.479 192.598 136.206 193.657 135.971C194.222 135.845 194.713 135.708 195.063 135.603C195.24 135.549 195.385 135.503 195.491 135.468C195.544 135.451 195.588 135.436 195.621 135.425C195.637 135.419 195.651 135.414 195.662 135.41C195.668 135.408 195.673 135.407 195.677 135.405C195.679 135.404 195.681 135.404 195.683 135.403C195.684 135.403 195.685 135.403 195.685 135.402C195.686 135.402 195.686 135.402 195.686 135.402C195.687 135.402 195.688 135.401 195.108 134.304ZM191.635 133.687C191.419 133.649 191.032 133.506 190.227 133.215C189.551 132.971 188.649 132.654 187.688 132.479C186.786 132.316 185.351 132.185 183.778 132.745C182.112 133.338 181.152 134.386 180.593 135.469L184.563 135.553C184.946 134.809 185.228 134.836 184.954 134.933C184.772 134.998 184.876 134.898 185.509 135.013C186.082 135.117 186.71 135.327 187.406 135.579C187.974 135.784 188.803 136.107 189.491 136.227L191.635 133.687ZM192.707 139.89C192.246 138.753 192.246 138.753 192.247 138.753C192.247 138.753 192.247 138.753 192.247 138.753C192.247 138.753 192.247 138.753 192.247 138.753C192.247 138.753 192.246 138.753 192.245 138.753C192.243 138.754 192.24 138.755 192.235 138.757C192.224 138.76 192.207 138.765 192.183 138.773C192.136 138.787 192.065 138.809 191.971 138.838C191.784 138.895 191.509 138.977 191.172 139.074C190.493 139.269 189.575 139.522 188.601 139.755C187.615 139.991 186.632 140.192 185.806 140.304C184.902 140.425 184.517 140.392 184.44 140.372L181.969 142.843C183.021 143.11 184.388 143.005 185.477 142.858C186.645 142.701 187.897 142.438 189.004 142.173C190.123 141.905 191.157 141.62 191.907 141.404C192.284 141.296 192.594 141.203 192.811 141.137C192.92 141.104 193.006 141.078 193.067 141.059C193.097 141.049 193.121 141.042 193.138 141.037C193.146 141.034 193.153 141.032 193.158 141.03C193.16 141.029 193.162 141.029 193.164 141.028C193.165 141.028 193.166 141.028 193.166 141.028C193.167 141.028 193.167 141.027 193.167 141.027C193.167 141.027 193.168 141.027 192.707 139.89ZM184.44 140.372C184.192 140.309 183.94 140.237 183.66 140.157C183.39 140.079 183.088 139.991 182.783 139.909C182.18 139.748 181.444 139.578 180.604 139.519C179.735 139.458 178.717 139.513 177.583 139.819C176.458 140.122 175.398 140.625 174.393 141.291L177.023 142.763C177.591 142.386 177.973 142.243 178.196 142.183C178.409 142.126 178.646 142.098 178.975 142.121C179.334 142.146 179.742 142.227 180.264 142.367C180.521 142.436 180.778 142.51 181.066 142.594C181.346 142.675 181.653 142.762 181.969 142.843L184.44 140.372ZM174.393 141.291C171.569 143.162 171.99 145.538 174.096 147.027C176.314 148.595 180.672 149.595 187.388 149.25L188.282 146.643C182.316 146.949 179.036 146.032 177.575 144.999C176.001 143.887 176.699 142.977 177.023 142.763L174.393 141.291ZM187.388 149.25C193.954 148.913 198.395 148.089 201.639 147.515C204.916 146.935 206.433 146.732 208.007 147.132L210.478 144.662C207.679 143.951 204.834 144.447 201.671 145.007C198.475 145.572 194.399 146.329 188.282 146.643L187.388 149.25ZM237.905 141.152C239.33 141.811 239.331 141.81 239.332 141.81C239.332 141.809 239.333 141.809 239.334 141.808C239.335 141.807 239.338 141.805 239.34 141.803C239.345 141.8 239.352 141.794 239.361 141.788C239.379 141.775 239.403 141.757 239.434 141.733C239.497 141.686 239.587 141.619 239.701 141.532C239.928 141.358 240.254 141.105 240.656 140.784C241.46 140.141 242.573 139.221 243.826 138.096C246.322 135.856 249.417 132.766 251.708 129.431C253.994 126.103 255.549 122.429 254.752 119.105C253.943 115.737 250.755 112.879 244.054 111.109L241.546 113.569C247.456 115.131 249.961 117.541 250.599 120.199C251.247 122.902 250.003 126.015 247.912 129.058C245.827 132.094 242.969 134.957 240.607 137.078C239.43 138.134 238.387 138.996 237.643 139.591C237.271 139.889 236.974 140.119 236.773 140.272C236.673 140.349 236.596 140.407 236.546 140.444C236.521 140.463 236.503 140.476 236.492 140.484C236.486 140.489 236.482 140.492 236.48 140.493C236.479 140.494 236.479 140.494 236.478 140.494C236.478 140.495 236.479 140.494 236.479 140.494C236.479 140.494 236.479 140.494 237.905 141.152ZM240.85 143.209C240.83 143.339 240.785 143.405 240.769 143.425C240.756 143.442 240.744 143.451 240.722 143.465C240.65 143.51 240.438 143.608 240.001 143.706C239.585 143.799 239.133 143.855 238.756 143.886C238.574 143.901 238.426 143.908 238.328 143.912C238.28 143.914 238.244 143.915 238.225 143.915C238.215 143.916 238.209 143.916 238.207 143.916C238.207 143.916 238.207 143.916 238.208 143.916C238.209 143.916 238.21 143.916 238.211 143.916C238.212 143.916 238.213 143.916 238.213 143.916C238.214 143.916 238.214 143.916 238.214 143.916C238.215 143.916 238.216 143.916 237.627 145.223C237.038 146.531 237.038 146.531 237.039 146.531C237.039 146.531 237.04 146.531 237.041 146.531C237.042 146.531 237.043 146.531 237.044 146.531C237.046 146.531 237.049 146.531 237.052 146.531C237.058 146.531 237.066 146.531 237.074 146.531C237.092 146.531 237.114 146.53 237.14 146.53C237.194 146.529 237.265 146.527 237.353 146.523C237.528 146.516 237.77 146.504 238.06 146.48C238.624 146.435 239.435 146.342 240.303 146.147C241.15 145.957 242.245 145.625 243.201 145.033C244.238 144.391 244.885 143.581 245.023 142.687L240.85 143.209ZM242.582 150.392C242.135 150.663 241.448 150.867 240.258 150.849C239.059 150.83 237.696 150.583 236.344 150.209C235.014 149.841 233.807 149.383 232.925 149.012C232.486 148.828 232.134 148.667 231.894 148.554C231.773 148.497 231.682 148.453 231.621 148.423C231.591 148.408 231.569 148.397 231.555 148.39C231.548 148.386 231.543 148.384 231.54 148.383C231.539 148.382 231.538 148.381 231.538 148.381C231.537 148.381 231.537 148.381 231.537 148.381C231.537 148.381 231.538 148.381 231.538 148.381C231.538 148.381 231.538 148.382 229.95 149.486C228.361 150.591 228.362 150.592 228.362 150.592C228.362 150.592 228.363 150.592 228.363 150.592C228.364 150.592 228.364 150.593 228.365 150.593C228.367 150.594 228.37 150.596 228.373 150.597C228.379 150.6 228.387 150.604 228.397 150.609C228.417 150.62 228.446 150.634 228.484 150.652C228.558 150.689 228.665 150.741 228.801 150.805C229.073 150.933 229.464 151.111 229.948 151.315C230.909 151.719 232.261 152.235 233.792 152.658C235.299 153.075 237.097 153.436 238.946 153.464C240.804 153.492 243.051 153.179 245.011 151.99L242.582 150.392ZM245.023 142.687C245.319 140.764 243.065 140.124 241.519 139.924C240.7 139.818 239.893 139.802 239.307 139.81C239.01 139.814 238.758 139.824 238.575 139.834C238.483 139.839 238.408 139.844 238.353 139.848C238.325 139.85 238.302 139.851 238.284 139.853C238.275 139.853 238.267 139.854 238.261 139.854C238.258 139.855 238.255 139.855 238.253 139.855C238.251 139.855 238.25 139.855 238.249 139.855C238.249 139.855 238.248 139.856 238.248 139.856C238.247 139.856 238.246 139.856 237.905 141.152C237.563 142.449 237.563 142.449 237.562 142.449C237.562 142.449 237.561 142.449 237.561 142.449C237.56 142.449 237.559 142.449 237.559 142.449C237.558 142.449 237.557 142.449 237.556 142.45C237.555 142.45 237.555 142.45 237.556 142.45C237.559 142.449 237.566 142.449 237.577 142.448C237.6 142.446 237.641 142.444 237.695 142.441C237.805 142.435 237.971 142.428 238.172 142.425C238.584 142.42 239.099 142.432 239.581 142.495C240.638 142.632 240.899 142.89 240.85 143.209L245.023 142.687ZM237.627 145.223C235.535 145.682 235.535 145.682 235.535 145.682C235.535 145.683 235.535 145.683 235.535 145.683C235.535 145.684 235.535 145.684 235.535 145.685C235.535 145.686 235.535 145.687 235.536 145.688C235.536 145.691 235.536 145.694 235.537 145.697C235.538 145.704 235.539 145.713 235.54 145.723C235.543 145.743 235.547 145.77 235.553 145.802C235.564 145.867 235.581 145.954 235.608 146.059C235.662 146.267 235.755 146.55 235.913 146.858C236.214 147.441 236.829 148.264 238.131 148.707L240.888 146.321C240.49 146.186 240.164 145.864 239.948 145.446C239.849 145.254 239.789 145.073 239.755 144.941C239.739 144.876 239.729 144.826 239.723 144.794C239.72 144.779 239.719 144.768 239.718 144.763C239.718 144.76 239.718 144.759 239.718 144.759C239.718 144.76 239.718 144.76 239.718 144.761C239.718 144.762 239.718 144.762 239.718 144.763C239.718 144.763 239.718 144.764 239.718 144.764C239.718 144.764 239.718 144.764 239.718 144.765C239.718 144.765 239.718 144.765 237.627 145.223ZM238.131 148.707C238.749 148.917 239.786 149.071 240.515 149.193C241.383 149.339 242.163 149.484 242.732 149.672C243.368 149.882 243.314 150.008 243.305 149.919C243.287 149.734 243.543 149.809 242.582 150.392L245.011 151.99C246.458 151.113 247.595 150.072 247.49 149.013C247.394 148.051 246.286 147.549 245.46 147.276C244.567 146.982 243.478 146.791 242.631 146.649C241.644 146.483 241.119 146.399 240.888 146.321L238.131 148.707ZM229.95 149.486C227.869 150.016 227.869 150.016 227.87 150.017C227.87 150.017 227.87 150.017 227.87 150.017C227.87 150.017 227.87 150.018 227.87 150.018C227.87 150.019 227.87 150.021 227.871 150.022C227.871 150.025 227.872 150.029 227.873 150.034C227.876 150.044 227.879 150.059 227.883 150.077C227.891 150.113 227.904 150.165 227.92 150.229C227.952 150.359 228.001 150.543 228.067 150.764C228.198 151.204 228.401 151.803 228.686 152.427C228.969 153.046 229.346 153.721 229.842 154.296C230.309 154.839 231.004 155.445 232.066 155.715L234.537 153.244C234.389 153.207 234.061 153.035 233.672 152.584C233.312 152.166 233.003 151.631 232.751 151.078C232.5 150.53 232.319 149.996 232.2 149.597C232.141 149.398 232.097 149.234 232.069 149.122C232.055 149.066 232.045 149.023 232.039 148.995C232.035 148.981 232.033 148.97 232.032 148.964C232.031 148.961 232.031 148.958 232.03 148.957C232.03 148.957 232.03 148.956 232.03 148.956C232.03 148.956 232.03 148.956 232.03 148.956C232.03 148.956 232.03 148.956 232.03 148.956C232.03 148.957 232.03 148.957 229.95 149.486ZM232.066 155.715C232.613 155.854 233.532 156.049 233.962 156.153C234.539 156.293 234.961 156.422 235.259 156.57C235.54 156.708 235.665 156.841 235.714 156.978C235.762 157.114 235.771 157.356 235.525 157.801L239.462 157.946C239.916 157.123 240.053 156.384 239.825 155.742C239.597 155.1 239.04 154.658 238.4 154.342C237.778 154.034 237.041 153.83 236.386 153.671C235.585 153.478 235.2 153.413 234.537 153.244L232.066 155.715ZM235.525 157.801C235.453 157.933 235.235 158.157 234.571 158.392C233.889 158.632 232.822 158.841 231.44 158.834C228.695 158.822 224.987 157.952 221.584 155.249L218.008 157.204C221.793 160.21 226.234 161.432 230.192 161.45C232.16 161.459 234.082 161.168 235.727 160.587C237.389 160.001 238.835 159.083 239.462 157.946L235.525 157.801ZM221.584 155.249C218.108 152.489 216.7 150.295 215.555 148.588C214.421 146.897 213.409 145.406 210.478 144.662L208.007 147.132C209.764 147.578 210.434 148.398 211.608 150.147C212.771 151.88 214.296 154.256 218.008 157.204L221.584 155.249Z" fill="#3F3E2E"/>
<ellipse rx="6.09501" ry="2.438" transform="matrix(1.19894 -0.191339 -0.044231 0.723865 229.31 115.705)" fill="#3F3E2E"/>
<path d="M206.501 138.776C208.798 138.805 210.553 137.176 213.347 137.448C215.583 137.664 215.775 138.946 215.023 140.064C214.393 141 211.388 143.085 207.476 142.092C202.587 140.85 203.229 138.165 203.777 137.208C203.916 137.682 204.684 138.753 206.501 138.776Z" fill="#3F3E2E" stroke="#3F3E2E" stroke-width="0.87347" stroke-linejoin="round"/>
<path d="M222.232 142.771C220.818 141.858 222.373 140.178 220.277 139.208C218.601 138.431 216.443 139.116 215.107 140.086C213.989 140.897 212.451 143.355 216.362 144.349C221.252 145.591 225.153 143.733 226.353 142.942C225.515 143.167 223.349 143.493 222.232 142.771Z" fill="#3F3E2E" stroke="#3F3E2E" stroke-width="0.87347" stroke-linejoin="round"/>
<circle r="2.91153" transform="matrix(0.969231 0.246153 -0.707107 0.707107 215.898 132.872)" fill="#3F3E2E"/>
<circle r="2.91153" transform="matrix(0.969231 0.246153 -0.707107 0.707107 226.057 135.452)" fill="#3F3E2E"/>
<path d="M143.167 165.728C141.839 165.39 140.844 164.855 140.18 164.122C139.531 163.393 139.278 162.543 139.424 161.574C139.592 160.598 140.18 159.606 141.188 158.598C142.196 157.59 143.423 156.767 144.87 156.128C146.329 155.492 147.834 155.089 149.384 154.918C150.948 154.751 152.394 154.836 153.722 155.173C155.05 155.51 156.038 156.044 156.688 156.773C157.351 157.506 157.597 158.354 157.425 159.317C157.266 160.283 156.683 161.27 155.675 162.278C154.667 163.286 153.435 164.114 151.979 164.763C150.533 165.402 149.034 165.806 147.484 165.977C145.934 166.148 144.495 166.065 143.167 165.728ZM145.457 163.438C146.584 163.724 147.757 163.678 148.975 163.3C150.208 162.926 151.274 162.289 152.174 161.388C153.084 160.478 153.466 159.667 153.32 158.955C153.198 158.237 152.573 157.735 151.446 157.448C150.306 157.159 149.125 157.196 147.903 157.561C146.694 157.929 145.629 158.573 144.709 159.493C143.799 160.403 143.405 161.217 143.528 161.935C143.674 162.647 144.317 163.148 145.457 163.438ZM155.92 163.702C156.771 162.85 157.749 162.166 158.855 161.649C159.974 161.136 161.127 160.815 162.315 160.687C163.516 160.563 164.666 160.64 165.766 160.92C167.175 161.277 168.079 161.845 168.48 162.621C168.894 163.401 168.76 164.318 168.076 165.372L164.414 164.442C164.732 163.737 164.448 163.272 163.563 163.048C162.932 162.887 162.248 162.941 161.511 163.207C160.783 163.464 160.086 163.925 159.421 164.591C158.755 165.256 158.429 165.818 158.443 166.275C158.466 166.723 158.793 167.027 159.423 167.187C160.309 167.412 161.219 167.25 162.153 166.702L165.815 167.632C164.561 168.517 163.184 169.112 161.684 169.418C160.183 169.724 158.735 169.7 157.34 169.346C156.24 169.066 155.433 168.646 154.917 168.086C154.414 167.529 154.239 166.871 154.393 166.112C154.559 165.357 155.068 164.553 155.92 163.702ZM173.177 170.551L171.049 172.68L169.298 172.235C168.051 171.918 167.299 171.451 167.041 170.834C166.794 170.206 167.174 169.389 168.182 168.381L171.441 165.122L170.073 164.775L172.157 162.69L173.526 163.038L175.522 161.041L178.963 161.915L176.966 163.911L179.22 164.484L177.135 166.568L174.882 165.996L171.594 169.284C171.349 169.529 171.253 169.725 171.307 169.874C171.36 170.022 171.574 170.144 171.95 170.24L173.177 170.551ZM178.059 174.608C176.959 174.328 176.138 173.905 175.595 173.337C175.066 172.773 174.864 172.109 174.991 171.343C175.13 170.581 175.626 169.774 176.477 168.923C177.319 168.081 178.313 167.407 179.459 166.9C180.614 166.384 181.806 166.067 183.034 165.949C184.262 165.832 185.426 165.912 186.525 166.192C187.625 166.471 188.447 166.895 188.99 167.462C189.532 168.029 189.736 168.701 189.6 169.476C189.473 170.241 188.989 171.045 188.148 171.887C187.306 172.728 186.301 173.406 185.132 173.919C183.986 174.425 182.792 174.736 181.551 174.85C180.323 174.968 179.159 174.887 178.059 174.608ZM180.232 172.435C180.889 172.602 181.622 172.567 182.43 172.331C183.252 172.098 183.991 171.653 184.647 170.998C185.302 170.342 185.578 169.78 185.474 169.312C185.384 168.847 185.01 168.531 184.353 168.364C183.682 168.194 182.949 168.229 182.154 168.469C181.369 168.699 180.644 169.147 179.978 169.812C179.323 170.468 179.033 171.026 179.11 171.487C179.201 171.952 179.575 172.268 180.232 172.435ZM201.098 169.93C202.413 170.263 203.146 170.842 203.298 171.666C203.473 172.484 203.017 173.436 201.931 174.522L197.145 179.307L193.725 178.439L198.172 173.991C198.72 173.443 198.952 172.968 198.866 172.566C198.78 172.163 198.409 171.879 197.752 171.712C197.094 171.545 196.42 171.564 195.727 171.768C195.035 171.973 194.415 172.349 193.867 172.897L189.419 177.345L185.978 176.471L194.169 168.28L197.61 169.154L196.523 170.24C197.234 169.967 197.988 169.802 198.783 169.747C199.589 169.681 200.36 169.742 201.098 169.93ZM204.63 181.356C203.53 181.076 202.709 180.653 202.166 180.086C201.636 179.522 201.435 178.857 201.561 178.091C201.701 177.329 202.197 176.522 203.048 175.671C203.89 174.829 204.883 174.155 206.029 173.649C207.185 173.132 208.377 172.815 209.604 172.697C210.832 172.58 211.996 172.661 213.096 172.94C214.196 173.219 215.017 173.643 215.56 174.21C216.103 174.777 216.306 175.449 216.17 176.224C216.044 176.99 215.56 177.793 214.718 178.635C213.877 179.476 212.871 180.154 211.702 180.667C210.556 181.173 209.363 181.484 208.122 181.598C206.894 181.716 205.73 181.635 204.63 181.356ZM206.802 179.183C207.46 179.35 208.193 179.315 209.001 179.079C209.823 178.846 210.562 178.401 211.217 177.746C211.873 177.09 212.149 176.528 212.045 176.06C211.955 175.595 211.581 175.279 210.924 175.112C210.253 174.942 209.52 174.977 208.725 175.217C207.94 175.447 207.215 175.895 206.549 176.56C205.893 177.216 205.604 177.774 205.681 178.236C205.771 178.7 206.145 179.016 206.802 179.183ZM220.935 182.68L218.806 184.809L217.056 184.364C215.808 184.047 215.056 183.58 214.799 182.963C214.551 182.335 214.932 181.518 215.94 180.51L219.199 177.251L217.83 176.903L219.915 174.819L221.283 175.166L223.279 173.17L226.72 174.044L224.724 176.04L226.977 176.612L224.893 178.697L222.639 178.125L219.351 181.413C219.106 181.657 219.011 181.854 219.064 182.003C219.117 182.151 219.332 182.273 219.707 182.368L220.935 182.68ZM235.635 183.781C235.4 184.016 235.135 184.256 234.84 184.5L227.054 182.522C226.598 183.045 226.428 183.492 226.543 183.865C226.681 184.232 227.039 184.488 227.616 184.635C228.474 184.853 229.335 184.74 230.199 184.297L233.861 185.227C233.135 185.717 232.309 186.115 231.382 186.419C230.468 186.727 229.52 186.91 228.538 186.967C227.555 187.025 226.608 186.937 225.696 186.706C224.596 186.426 223.788 186.006 223.272 185.446C222.756 184.885 222.575 184.226 222.728 183.467C222.881 182.708 223.383 181.903 224.235 181.052C225.086 180.2 226.065 179.516 227.17 178.999C228.289 178.486 229.449 178.167 230.65 178.042C231.851 177.918 233.009 177.997 234.122 178.28C235.208 178.556 236.008 178.967 236.52 179.515C237.033 180.062 237.215 180.704 237.068 181.439C236.935 182.179 236.457 182.959 235.635 183.781ZM232.774 182.226C233.205 181.796 233.346 181.402 233.198 181.046C233.05 180.689 232.674 180.434 232.071 180.281C231.494 180.134 230.882 180.132 230.235 180.275C229.601 180.42 229.012 180.706 228.468 181.133L232.774 182.226Z" fill="#3F3E2E"/>
</svg>
