<svg width="50" height="50" viewBox="0 0 50 50" fill="none" xmlns="http://www.w3.org/2000/svg">
<path d="M16.1222 32H14.4602L19.267 18.9091H20.9034L25.7102 32H24.0483L20.1364 20.9801H20.0341L16.1222 32ZM16.7358 26.8864H23.4347V28.2926H16.7358V26.8864ZM30.4339 32.2301C29.8118 32.2301 29.2472 32.1129 28.7401 31.8786C28.233 31.6399 27.8303 31.2969 27.532 30.8494C27.2337 30.3977 27.0845 29.8523 27.0845 29.2131C27.0845 28.6506 27.1953 28.1946 27.4169 27.8452C27.6385 27.4915 27.9347 27.2145 28.3054 27.0142C28.6761 26.8139 29.0852 26.6648 29.5327 26.5668C29.9844 26.4645 30.4382 26.3835 30.8942 26.3239C31.4908 26.2472 31.9744 26.1896 32.3452 26.1513C32.7202 26.1087 32.9929 26.0384 33.1634 25.9403C33.3381 25.8423 33.4254 25.6719 33.4254 25.429V25.3778C33.4254 24.7472 33.2528 24.2571 32.9077 23.9077C32.5668 23.5582 32.049 23.3835 31.3544 23.3835C30.6342 23.3835 30.0696 23.5412 29.6605 23.8565C29.2514 24.1719 28.9638 24.5085 28.7976 24.8665L27.3658 24.3551C27.6214 23.7585 27.9624 23.294 28.3885 22.9616C28.8189 22.625 29.2876 22.3906 29.7947 22.2585C30.3061 22.1222 30.8089 22.054 31.3033 22.054C31.6186 22.054 31.9808 22.0923 32.3899 22.169C32.8033 22.2415 33.2017 22.3928 33.5852 22.6229C33.973 22.853 34.2947 23.2003 34.5504 23.6648C34.8061 24.1293 34.9339 24.7514 34.9339 25.5312V32H33.4254V30.6705H33.3487C33.2464 30.8835 33.076 31.1115 32.8374 31.3544C32.5987 31.5973 32.2813 31.804 31.8849 31.9744C31.4886 32.1449 31.005 32.2301 30.4339 32.2301ZM30.6641 30.875C31.2607 30.875 31.7635 30.7578 32.1726 30.5234C32.5859 30.2891 32.897 29.9865 33.1058 29.6158C33.3189 29.245 33.4254 28.8551 33.4254 28.446V27.0653C33.3615 27.142 33.2209 27.2124 33.0036 27.2763C32.7905 27.3359 32.5433 27.3892 32.2621 27.4361C31.9851 27.4787 31.7145 27.517 31.4503 27.5511C31.1903 27.581 30.9794 27.6065 30.8175 27.6278C30.4254 27.679 30.0589 27.7621 29.718 27.8771C29.3814 27.9879 29.1087 28.1562 28.8999 28.3821C28.6953 28.6037 28.593 28.9062 28.593 29.2898C28.593 29.8139 28.7869 30.2102 29.1747 30.4787C29.5668 30.7429 30.0632 30.875 30.6641 30.875Z" fill="black"/>
</svg>
