<svg width="50" height="50" viewBox="0 0 50 50" fill="none" xmlns="http://www.w3.org/2000/svg">
<path d="M14.5852 32V18.9091H16.1705V24.7386H23.1506V18.9091H24.7358V32H23.1506V26.1449H16.1705V32H14.5852ZM32.1026 32.179C31.2589 32.179 30.5067 32.0341 29.8462 31.7443C29.19 31.4545 28.668 31.0518 28.2802 30.5362C27.8967 30.0163 27.6879 29.4134 27.6538 28.7273H29.2646C29.2987 29.1491 29.4435 29.5135 29.6992 29.8203C29.9549 30.1229 30.2894 30.3572 30.7028 30.5234C31.1161 30.6896 31.5742 30.7727 32.0771 30.7727C32.6396 30.7727 33.1381 30.6747 33.5728 30.4787C34.0075 30.2827 34.3484 30.0099 34.5955 29.6605C34.8427 29.3111 34.9663 28.9062 34.9663 28.446C34.9663 27.9645 34.8469 27.5405 34.6083 27.174C34.3697 26.8033 34.0202 26.5135 33.56 26.3047C33.0998 26.0959 32.5373 25.9915 31.8725 25.9915H30.8242V24.5852H31.8725C32.3924 24.5852 32.8484 24.4915 33.2404 24.304C33.6367 24.1165 33.9457 23.8523 34.1673 23.5114C34.3931 23.1705 34.506 22.7699 34.506 22.3097C34.506 21.8665 34.408 21.4808 34.212 21.1527C34.016 20.8246 33.739 20.5689 33.381 20.3857C33.0273 20.2024 32.6097 20.1108 32.1282 20.1108C31.6765 20.1108 31.2504 20.1939 30.8498 20.3601C30.4535 20.522 30.1296 20.7585 29.8782 21.0696C29.6268 21.3764 29.4904 21.7472 29.4691 22.1818H27.935C27.9606 21.4957 28.1673 20.8949 28.555 20.3793C28.9428 19.8594 29.4499 19.4545 30.0763 19.1648C30.707 18.875 31.3995 18.7301 32.1538 18.7301C32.9634 18.7301 33.658 18.8942 34.2376 19.2223C34.8171 19.5462 35.2624 19.9744 35.5735 20.5071C35.8846 21.0398 36.0401 21.6151 36.0401 22.233C36.0401 22.9702 35.8462 23.5987 35.4585 24.1186C35.0749 24.6385 34.5529 24.9986 33.8924 25.1989V25.3011C34.7191 25.4375 35.3647 25.7891 35.8292 26.3558C36.2937 26.9183 36.5259 27.6151 36.5259 28.446C36.5259 29.1577 36.332 29.7969 35.9442 30.3636C35.5607 30.9261 35.0366 31.3693 34.3718 31.6932C33.707 32.017 32.9506 32.179 32.1026 32.179Z" fill="black"/>
</svg>
