<svg width="50" height="50" viewBox="0 0 50 50" fill="none" xmlns="http://www.w3.org/2000/svg">
<path d="M14.5852 32V18.9091H16.1705V24.7386H23.1506V18.9091H24.7358V32H23.1506V26.1449H16.1705V32H14.5852ZM27.6793 32V30.8494L32.0004 26.1193C32.5075 25.5653 32.9251 25.0838 33.2532 24.6747C33.5813 24.2614 33.8242 23.8736 33.9819 23.5114C34.1438 23.1449 34.2248 22.7614 34.2248 22.3608C34.2248 21.9006 34.114 21.5021 33.8924 21.1655C33.6751 20.8288 33.3768 20.5689 32.9975 20.3857C32.6183 20.2024 32.1921 20.1108 31.7191 20.1108C31.2163 20.1108 30.7773 20.2152 30.4023 20.424C30.0316 20.6286 29.744 20.9162 29.5394 21.2869C29.3391 21.6577 29.239 22.0923 29.239 22.5909H27.7305C27.7305 21.8239 27.9073 21.1506 28.261 20.571C28.6147 19.9915 29.0962 19.5398 29.7056 19.2159C30.3192 18.892 31.0075 18.7301 31.7702 18.7301C32.5373 18.7301 33.217 18.892 33.8093 19.2159C34.4016 19.5398 34.8661 19.9766 35.2028 20.5263C35.5394 21.076 35.7077 21.6875 35.7077 22.3608C35.7077 22.8423 35.6204 23.3132 35.4457 23.7734C35.2752 24.2294 34.9769 24.7386 34.5508 25.3011C34.1289 25.8594 33.543 26.5412 32.793 27.3466L29.8526 30.4915V30.5938H35.9379V32H27.6793Z" fill="black"/>
</svg>
